<svg xmlns="http://www.w3.org/2000/svg" xmlns:xlink="http://www.w3.org/1999/xlink" width="388.566" height="146.895" viewBox="0 0 102.808 38.866" xmlns:v="https://vecta.io/nano"><g fill="#fff"><path d="M39.542 5.673h4.024q3.4 0 4.52 1.14 1.12 1.14 1.12 2.754 0 1.076-.473 2.044-.473.947-1.506 1.42 1.506.237 2.238 1.27.732 1 .732 2.367 0 1.377-.43 2.4-.43 1.033-1.786 1.722-1.356.7-3.916.7h-4.52zm4.4 6.714q1.528 0 2.173-.732.646-.753.646-1.894 0-2.044-2.927-2.044H41.9v4.67zm.43 7.08q1.958 0 2.625-.775.7-.796.7-2 0-1.14-.775-1.765-.775-.624-2.346-.624H41.9v5.165zM60.185 5.673L67.687 21.5H65l-1.313-3h-7.023l-1.313 3h-2.605zm2.584 10.7l-2.563-5.856-2.605 5.856zm7.47-10.7h2.334V21.5H70.24zm8.802 2.042h-3.918V5.673h10.2v2.042h-3.96V21.5H79.05zm16.264-2.042l7.502 15.817h-2.688l-1.313-3h-7.023l-1.313 3h-2.605zm2.584 10.7l-2.563-5.856-2.605 5.856z"/><g transform="matrix(.498214 0 0 .498214 178.88979 16.385)"><path d="M-276.5 30.064q-.943 0-1.87-.33-.927-.33-1.336-.74l.833-1.493q.33.3 1.022.63.707.314 1.352.314.833 0 1.352-.393.534-.393.534-1.084 0-.534-.283-.927-.283-.393-.692-.644-.4-.267-1.163-.644-.896-.44-1.226-.66-1.525-1.022-1.525-2.83 0-1.493 1-2.28 1-.802 2.5-.802 1.62 0 2.75.927l-.833 1.43q-.3-.314-.85-.534-.534-.236-1.147-.236-.786 0-1.242.36-.44.346-.44 1.037 0 .487.283.88.283.377.707.66.44.283 1.18.692.707.393 1.084.63.377.22.707.534.456.4.74.974.283.566.283 1.242 0 1.053-.487 1.792-.47.74-1.32 1.116-.833.377-1.902.377zm9.6 0q-1.116 0-1.98-.503-.864-.503-1.336-1.367-.472-.864-.472-1.917 0-1.037.456-1.902.472-.864 1.336-1.367.864-.503 1.996-.503 1.132 0 1.98.503.864.503 1.32 1.367.472.864.472 1.902 0 1.053-.472 1.917-.47.864-1.336 1.367-.85.503-1.965.503zm.047-1.383q.912 0 1.43-.676.534-.676.534-1.697 0-1.022-.566-1.713-.566-.707-1.493-.707-.896 0-1.446.692-.534.692-.534 1.73 0 1.006.582 1.697.582.676 1.493.676zm5.818-10.398h1.682v11.78h-1.682zm6.385 11.78c-.995 0-1.682-.293-2.06-.88-.367-.587-.55-1.404-.55-2.452v-4.04h1.697v3.615c0 .597.03 1.064.094 1.4.073.325.2.566.4.723.2.157.52.236.927.236a1.62 1.62 0 0 0 .85-.25c.274-.166.492-.393.66-.676.178-.293.267-.613.267-.96v-4.086h1.682v7.37h-1.383l-.2-1.2c-.262.4-.592.712-1 .912-.388.2-.86.3-1.415.3zm12.197-.692q-.3.22-.802.424-.487.2-1.1.25.063.204.3.503.267.36.393.66.14.3.14.74 0 1.084-.644 1.587-.63.52-1.73.52-.377 0-.85-.08l.14-1.462q.22.03.44.03 1.116 0 1.116-.707 0-.14-.063-.3-.063-.14-.126-.236-.047-.08-.063-.1-.14-.204-.236-.393-.08-.2-.08-.424 0-.25.063-.377-1.352-.236-2.2-1.226-.833-1.006-.833-2.562 0-1.116.456-1.95.47-.85 1.304-1.304.85-.456 1.95-.456.833 0 1.43.22.613.204.96.52l-.754 1.367q-.66-.66-1.493-.66-1.006 0-1.54.613-.52.613-.52 1.635 0 1.163.534 1.807.55.644 1.525.644.487 0 .943-.14.472-.14.723-.33zm5.88.692q-1.116 0-1.98-.503-.864-.503-1.336-1.367-.472-.864-.472-1.917 0-1.037.456-1.902.472-.864 1.336-1.367.864-.503 1.996-.503 1.132 0 1.98.503.864.503 1.32 1.367.47.864.47 1.902 0 1.053-.47 1.917-.472.864-1.336 1.367-.85.503-1.965.503zm.047-1.383q.912 0 1.43-.676.534-.676.534-1.697 0-1.022-.566-1.713-.566-.707-1.493-.707-.896 0-1.446.692-.534.692-.534 1.73 0 1.006.582 1.697.582.676 1.493.676zm.96-7.48q-.472 0-.74-.14-.25-.14-.503-.4-.2-.22-.377-.33-.2-.1-.47-.1-.267 0-.55.22-.267.22-.47.676l-.723-1.1q.14-.487.582-.88.456-.393 1.132-.393.456 0 .74.157.3.14.52.393.22.236.4.346.204.1.487.1.283 0 .566-.22.3-.236.503-.707l.723 1.116q-.063.25-.33.55-.25.3-.66.52-.393.204-.833.204zm8.692 8.863q-1.3 0-2.153-.503-.864-.52-1.273-1.367-.4-.864-.4-1.886 0-1.147.472-2.012.487-.864 1.336-1.32.85-.472 1.917-.472 1.666 0 2.468.927.817.912.817 2.578 0 .424-.047.88h-5.187q.173.96.676 1.383.52.424 1.43.424.754 0 1.242-.126.487-.126.896-.346l.52 1.2q-.393.25-1.07.44-.676.2-1.635.2zm1.525-4.354q.016-.974-.424-1.367-.44-.4-1.257-.4-1.65 0-1.902 1.776zm6.462 4.354q-.754 0-1.572-.2-.802-.204-1.147-.472l.566-1.336q.943.66 2.153.66 1.2 0 1.2-.707 0-.314-.25-.487-.25-.173-.896-.4l-.597-.22q-.943-.377-1.493-.896-.55-.534-.55-1.4 0-1 .77-1.54.786-.566 2.1-.566.644 0 1.257.14.63.14.96.36l-.615 1.36q-.204-.204-.66-.346-.44-.157-1-.157-1.116 0-1.116.676 0 .377.3.582.3.2.974.424.063.016.487.173 1.006.393 1.493.896.487.503.487 1.3 0 1.07-.817 1.62-.802.55-2.043.55zm9.92-11.78h2.782q3.5 0 4.872 1.683 1.4 1.683 1.4 4.007 0 1.62-.597 2.997-.597 1.362-1.98 2.228-1.367.866-3.6.866h-2.876zm3.065 10.194q2.17 0 3.143-1.25 1-1.266 1-3.174 0-1.86-1-3.03-1-1.17-3.143-1.17h-1.304v8.623z"/><use xlink:href="#B"/><path d="M-189.553 33.68a5.86 5.86 0 0 1-1.587-.22c-.513-.147-.88-.283-1.1-.41l.377-1.572c.692.45 1.446.676 2.263.676.63 0 1.158-.152 1.587-.456s.65-.896.66-1.776v-1.29c-.22.41-.576.75-1.07 1.022a3.32 3.32 0 0 1-1.635.409c-.63 0-1.205-.152-1.73-.456-.524-.314-.938-.76-1.242-1.336s-.456-1.247-.456-2.012c0-.733.14-1.383.424-1.95a3.19 3.19 0 0 1 1.242-1.336c.534-.314 1.158-.472 1.87-.472.42 0 .812.073 1.18.22s.676.33.927.55c.262.2.435.42.52.63l.03-1.4h1.603v7.355c0 1.226-.314 2.17-.943 2.83s-1.603 1-2.923 1zm-.03-5.045a2.05 2.05 0 0 0 1.509-.613c.41-.42.613-.964.613-1.635v-.1c0-.45-.094-.854-.283-1.2s-.445-.634-.77-.833-.68-.3-1.07-.3c-.67 0-1.19.22-1.556.66-.367.43-.55 1-.55 1.682 0 .702.178 1.273.534 1.713.367.43.89.644 1.572.644z"/><use xlink:href="#B" x="14.224"/><path d="M-177.984 23.887h-1.273v-1.383h1.273v-2.75l1.713-.377v3.128h1.666v1.383h-1.666v6.177h-1.713zm9.07 6.177a3.7 3.7 0 0 1-1.807-.456c-.545-.314-.985-.754-1.32-1.32-.325-.576-.487-1.247-.487-2.012 0-.754.14-1.415.424-1.98.293-.566.707-1.006 1.242-1.32s1.163-.472 1.886-.472c.42 0 .812.073 1.18.22s.676.33.927.55c.25.2.42.42.503.63l.03-1.4h1.62v7.56h-1.603l-.03-1.43c-.178.377-.503.712-.974 1.006-.47.283-1 .424-1.587.424zm.283-1.415a2.05 2.05 0 0 0 1.509-.613c.4-.42.613-.964.613-1.635v-.1c0-.45-.094-.854-.283-1.2s-.445-.634-.77-.833-.68-.3-1.07-.3c-.67 0-1.2.22-1.556.66-.367.43-.55 1-.55 1.682 0 .702.178 1.273.534 1.713.367.43.9.644 1.572.644z"/><use xlink:href="#B" x="35.194"/><path d="M-155.57 30.064q-.754 0-1.572-.19-.802-.204-1.147-.472l.566-1.336q.943.66 2.153.66 1.2 0 1.2-.707 0-.314-.25-.487-.25-.173-.896-.41l-.597-.22q-.943-.377-1.493-.896-.55-.534-.55-1.4 0-1 .77-1.54.786-.566 2.1-.566.644 0 1.257.14.63.14.96.36l-.613 1.352q-.204-.204-.66-.346-.44-.157-1-.157-1.116 0-1.116.676 0 .377.3.582.3.19.974.424.063.016.487.173 1.006.393 1.493.896.487.503.487 1.29 0 1.07-.817 1.62-.802.55-2.043.55z"/></g><path d="M8.8 0c-1.687 0-3.054 1.367-3.055 3.054v2.36c.234 2.912 2.37 6.1 6.752 6.804 1.48.238 5.68.068 7.793.363.91-1.3 1.448-2.88 1.448-4.586A8 8 0 0 0 13.751 0z"/><path d="M5.758 5.5h0zm0 .012v17.54l.16-.022a.52.52 0 0 1 .054-.003h0c.053.001.104.014.15.037.102.05.177.15.194.27l.197 1.455c.026.194-.11.372-.303.398l-.44.06-.014-1.612v3.242l.26-.035c.013-.002.026-.002.04-.002h0c.038.001.074.01.107.026.072.036.127.106.138.193l.05.367c.018.14-.078.266-.217.285l-.367.05-.01-.534v-.35l-.107.014c-.14.02-.235.146-.217.284l.05.367c.018.135.14.23.274.217v8.052c0 1.687 1.367 3.054 3.054 3.054h9.884a12.94 12.94 0 0 0 12.938-12.938A12.94 12.94 0 0 0 18.696 12.99h-5.254C9.778 13 6.1 9.703 5.764 5.9c0-.003-.01-.355-.01-.376zm-2.076 11.2l-.19.025c-.052.007-.09.055-.082.108l.026.19c.01.052.055.09.107.082l.19-.026c.052-.007.09-.055.082-.107l-.025-.19c-.01-.052-.055-.09-.108-.082zM2.4 18.18c-.01-.001-.02 0-.032.001l-.305.04c-.085.012-.144.09-.133.174l.042.306c.012.085.09.144.174.132l.305-.04c.085-.012.144-.09.133-.174l-.042-.305c-.01-.074-.07-.13-.143-.134zm-.95 1.61h0c-.016-.001-.034 0-.05.002l-.494.067a.25.25 0 0 0-.214.282l.067.494a.25.25 0 0 0 .281.215l.494-.067a.25.25 0 0 0 .214-.281l-.067-.494a.25.25 0 0 0-.231-.216zm20.08 1.44a.86.86 0 0 1 .87.855l.054 6.48c0 .478-.378.866-.856.87l-6.48.054a.86.86 0 0 1-.87-.856l-.053-6.48c0-.478.377-.866.855-.87zm-18.008.047a.23.23 0 0 0-.051.002l-.367.05c-.14.02-.235.146-.217.285l.05.367c.018.14.146.235.284.216l.367-.05c.14-.02.235-.146.217-.285l-.05-.367c-.016-.12-.116-.2-.233-.218zm6.677.332l1.59.085c.168.01.296.15.287.32L12 23.603c-.01.168-.152.296-.32.287l-1.59-.085c-.168-.01-.296-.15-.287-.32l.085-1.59c.01-.168.15-.296.32-.287zm-2.55.408h0c.072.005.133.06.143.134l.042.306c.012.085-.047.162-.133.174l-.305.04c-.085.012-.163-.048-.174-.132l-.042-.306c-.012-.085.047-.162.133-.174l.305-.04c.01-.001.02-.002.03-.001zm-7.186.318c-.01-.001-.02 0-.032.001l-.305.04c-.085.012-.144.09-.133.174l.042.306c.012.085.09.144.174.132l.306-.04c.085-.012.144-.09.132-.174l-.042-.305c-.01-.074-.07-.13-.142-.134zm5.286.72l-1.294.175c-.194.026-.33.204-.303.398l.197 1.455c.026.194.204.33.398.303l1.003-.136zm-3.197.194c-.01-.001-.02 0-.03.001l-.306.04c-.085.012-.144.09-.132.174l.042.305c.012.085.09.144.174.133l.305-.04c.085-.012.144-.09.133-.174l-.042-.306c-.01-.074-.07-.13-.143-.134zm5.707.125h0a.25.25 0 0 1 .231.216l.067.494a.25.25 0 0 1-.214.282l-.494.067a.25.25 0 0 1-.281-.214l-.067-.494a.25.25 0 0 1 .214-.281l.494-.067c.017-.003.034-.003.05-.002zm-7.11 1.263h0a.23.23 0 0 0-.051.002l-.42.057c-.14.02-.235.145-.217.284l.057.42c.018.14.145.235.284.217l.42-.057c.14-.02.235-.146.217-.285l-.057-.42c-.016-.12-.116-.21-.233-.218zm9.964 1.302c.25-.022.47.163.493.414l.225 2.6c.02.25-.163.47-.414.492l-2.598.225c-.25.022-.47-.163-.493-.414l-.224-2.598c-.02-.25.163-.47.414-.493zm-8.63 1.038l-.19.026c-.052.007-.09.055-.082.107l.026.19c.01.052.055.09.107.082l.19-.026c.052-.007.09-.055.082-.107l-.025-.19c-.01-.052-.055-.09-.108-.082zm2.39.252a.23.23 0 0 0-.051.002l-.84.114c-.14.02-.235.146-.217.284l.113.84c.018.14.146.235.284.217l.84-.113c.14-.02.235-.146.217-.284l-.113-.84c-.016-.12-.116-.21-.233-.218z"/></g><defs ><path id="B" d="M-197.554 22.504h1.76v7.56h-1.76zm.864-1.163a1.11 1.11 0 0 1-1.147-1.147c0-.293.1-.545.33-.754s.492-.314.817-.314a1.12 1.12 0 0 1 .802.314c.22.2.33.46.33.754a1.11 1.11 0 0 1-.33.817c-.2.22-.477.33-.802.33z"/></defs></svg>