<svg xmlns="http://www.w3.org/2000/svg" xmlns:xlink="http://www.w3.org/1999/xlink" width="626.808" height="236.961" viewBox="0 0 165.843 62.696" xmlns:v="https://vecta.io/nano"><defs><linearGradient id="A" x1="557.14" y1="-141.985" x2="601.754" y2="-141.985" gradientUnits="userSpaceOnUse"><stop offset="0" stop-color="#147bd1"/><stop offset="1" stop-color="#05c3dd"/></linearGradient><linearGradient id="B" x1="541.003" y1="-102.406" x2="629.249" y2="-102.406" gradientUnits="userSpaceOnUse"><stop offset="0" stop-color="#05c3dd"/><stop offset="1" stop-color="#147bd1"/></linearGradient><path id="C" d="M-197.554 22.504h1.76v7.56h-1.76zm.864-1.163a1.11 1.11 0 0 1-1.147-1.147c0-.293.1-.545.33-.754s.492-.314.817-.314a1.12 1.12 0 0 1 .802.314c.22.2.33.46.33.754a1.11 1.11 0 0 1-.33.817c-.2.22-.477.33-.802.33z"/></defs><g transform="translate(-135.549 5.735)"><g transform="matrix(.578249 0 0 .578249 -177.28583 89.266972)"><path d="M565.66-164.292c-4.706 0-8.52 3.815-8.52 8.52v13.787c0 6.16 2.497 11.737 6.534 15.774s9.614 6.534 15.774 6.534c12.32 0 22.307-9.987 22.307-22.307s-9.987-22.307-22.307-22.307z" fill="url(#A)" transform="translate(-.077)"/><path d="M557.064-148.945v.033zm0 .033v48.93l.45-.06c.05-.006.1-.01.15-.01v.001a.99.99 0 0 1 .419.102c.284.14.495.415.54.754l.55 4.06c.073.542-.304 1.037-.845 1.1l-1.226.166-.037-4.496v9.043l.726-.098c.036-.006.072-.006.108-.006h0a.7.7 0 0 1 .3.072c.203.1.353.297.386.54l.138 1.023c.052.387-.217.74-.604.794l-1.024.138-.03-1.49v-.973l-.298.04c-.387.052-.656.406-.604.793l.14 1.023a.7.7 0 0 0 .763.606v22.462c0 4.706 3.815 8.52 8.52 8.52h27.573c19.934 0 36.093-16.16 36.092-36.093s-16.16-36.092-36.092-36.092H578.5c-10.22 0-20.484-9.17-21.417-19.81a44.01 44.01 0 0 1-.017-1.05zm-5.79 31.272l-.527.07c-.146.02-.248.154-.228.3l.07.527c.02.146.153.248.3.228l.527-.07c.146-.02.248-.153.228-.3l-.07-.527c-.02-.146-.154-.248-.3-.228zm-3.55 4.066c-.03-.003-.058 0-.088.003l-.852.115a.43.43 0 0 0-.37.485l.115.853a.43.43 0 0 0 .486.369l.852-.115a.43.43 0 0 0 .37-.485l-.115-.852a.43.43 0 0 0-.398-.373zm-2.654 4.5v.001c-.046-.003-.094 0-.142.005l-1.38.186c-.383.052-.65.402-.598.785l.187 1.38c.052.383.402.65.785.598l1.38-.187c.383-.052.65-.402.598-.785l-.187-1.38c-.045-.335-.32-.58-.643-.603zm56.02 4.017a2.4 2.4 0 0 1 2.426 2.386l.15 18.075a2.4 2.4 0 0 1-2.387 2.426l-18.074.15a2.4 2.4 0 0 1-2.427-2.387l-.15-18.074a2.4 2.4 0 0 1 2.386-2.427zm-50.236.13c-.047-.003-.095-.003-.143.005l-1.023.138c-.387.052-.657.407-.605.794l.138 1.024c.052.387.406.656.793.604l1.024-.138c.387-.052.656-.407.604-.794l-.138-1.023c-.046-.34-.322-.587-.65-.61zm18.627.927l4.438.238c.468.025.825.422.8.9l-.237 4.437c-.025.468-.423.825-.89.8l-4.437-.237c-.468-.025-.825-.422-.8-.9l.238-4.437c.025-.468.422-.825.9-.8zm-7.118 1.138h0a.43.43 0 0 1 .398.373l.115.853a.43.43 0 0 1-.37.485l-.852.115a.43.43 0 0 1-.486-.369l-.115-.853a.43.43 0 0 1 .37-.485l.852-.115c.03-.003.058-.006.087-.003zm-20.046.886c-.03-.003-.058 0-.088.003l-.852.115a.43.43 0 0 0-.37.485l.115.853a.43.43 0 0 0 .485.369l.853-.115a.43.43 0 0 0 .369-.485l-.115-.852a.43.43 0 0 0-.397-.373zm14.746 2.005l-3.61.488c-.542.073-.92.57-.846 1.11l.55 4.06c.073.542.57.92 1.11.846l2.797-.378zm-8.92.54c-.03-.003-.058 0-.087.003l-.853.115a.43.43 0 0 0-.369.485l.115.852a.43.43 0 0 0 .485.37l.852-.115a.43.43 0 0 0 .37-.485l-.115-.853a.43.43 0 0 0-.398-.373zm15.922.35h0c.324.022.598.268.643.603l.187 1.38c.052.383-.215.734-.598.785l-1.38.187c-.383.052-.733-.215-.785-.598l-.187-1.38c-.052-.383.215-.733.598-.785l1.38-.187c.048-.008.095-.008.142-.005zm-19.83 3.523v.001a.62.62 0 0 0-.143.005l-1.173.16c-.387.052-.656.406-.604.793l.16 1.173c.052.387.406.657.793.605l1.174-.158c.387-.052.656-.407.604-.794l-.16-1.173c-.046-.34-.322-.587-.65-.61zm27.798 3.632c.7-.06 1.314.454 1.374 1.155l.626 7.25c.06.7-.455 1.313-1.155 1.374l-7.25.626a1.27 1.27 0 0 1-1.375-1.155l-.626-7.25c-.06-.7.454-1.314 1.155-1.374zm-24.077 2.895l-.527.07c-.146.02-.248.153-.228.3l.07.527c.02.146.153.248.3.228l.527-.07c.146-.02.248-.153.228-.3l-.07-.527c-.02-.146-.154-.248-.3-.228zm6.664.704a.62.62 0 0 0-.143.005l-2.34.317c-.387.052-.656.406-.604.793l.316 2.34c.052.387.406.656.793.604l2.34-.316c.387-.052.656-.406.604-.793l-.316-2.34c-.046-.34-.322-.587-.65-.61z" fill="url(#B)"/></g><g fill="#00a9e0"><path d="M199.334 3.416h6.5q5.485 0 7.3 1.84 1.805 1.84 1.805 4.443 0 1.736-.764 3.298-.764 1.527-2.43 2.3 2.43.382 3.6 2.048 1.18 1.632 1.18 3.818 0 2.222-.694 3.888-.694 1.666-2.88 2.777-2.187 1.1-6.318 1.1h-7.3zm7.116 10.83q2.465 0 3.506-1.18 1.04-1.215 1.04-3.055 0-3.298-4.72-3.298h-3.124v7.533zm.694 11.42q3.16 0 4.235-1.25 1.1-1.284 1.1-3.228 0-1.84-1.25-2.846-1.25-1.007-3.784-1.007h-4.304v8.33zm25.49-22.25l12.102 25.514H240.4l-2.118-4.84h-11.328l-2.118 4.84h-4.202zm4.168 17.278l-4.135-9.446-4.202 9.446zm12.05-17.278h3.765V28.93h-3.765zm14.2 3.284h-6.32V3.416h16.438V6.7h-6.387v22.22h-3.73zM289.3 3.416l12.102 25.514h-4.336l-2.118-4.84H283.6l-2.118 4.84H277.3zm4.168 17.278l-4.135-9.446-4.202 9.446z"/><g transform="matrix(.80369 0 0 .80369 424.12286 20.695912)"><path d="M-276.5 30.064q-.943 0-1.87-.33-.927-.33-1.336-.74l.833-1.493q.33.3 1.022.63.707.314 1.352.314.833 0 1.352-.393.534-.393.534-1.084 0-.534-.283-.927-.283-.393-.692-.644-.4-.267-1.163-.644-.896-.44-1.226-.66-1.525-1.022-1.525-2.83 0-1.493 1-2.28 1-.802 2.5-.802 1.62 0 2.75.927l-.833 1.43q-.3-.314-.85-.534-.534-.236-1.147-.236-.786 0-1.242.36-.44.346-.44 1.037 0 .487.283.88.283.377.707.66.44.283 1.18.692.707.393 1.084.63.377.22.707.534.456.4.74.974.283.566.283 1.242 0 1.053-.487 1.792-.47.74-1.32 1.116-.833.377-1.902.377zm9.6 0q-1.116 0-1.98-.503-.864-.503-1.336-1.367-.472-.864-.472-1.917 0-1.037.456-1.902.472-.864 1.336-1.367.864-.503 1.996-.503 1.132 0 1.98.503.864.503 1.32 1.367.472.864.472 1.902 0 1.053-.472 1.917-.47.864-1.336 1.367-.85.503-1.965.503zm.047-1.383q.912 0 1.43-.676.534-.676.534-1.697 0-1.022-.566-1.713-.566-.707-1.493-.707-.896 0-1.446.692-.534.692-.534 1.73 0 1.006.582 1.697.582.676 1.493.676zm5.818-10.398h1.682v11.78h-1.682zm6.385 11.78c-.995 0-1.682-.293-2.06-.88-.367-.587-.55-1.404-.55-2.452v-4.04h1.697v3.615c0 .597.03 1.064.094 1.4.073.325.2.566.4.723.2.157.52.236.927.236a1.62 1.62 0 0 0 .85-.25c.274-.166.492-.393.66-.676.178-.293.267-.613.267-.96v-4.086h1.682v7.37h-1.383l-.2-1.2c-.262.4-.592.712-1 .912-.388.2-.86.3-1.415.3zm12.197-.692q-.3.22-.802.424-.487.2-1.1.25.063.204.3.503.267.36.393.66.14.3.14.74 0 1.084-.644 1.587-.63.52-1.73.52-.377 0-.85-.08l.14-1.462q.22.03.44.03 1.116 0 1.116-.707 0-.14-.063-.3-.063-.14-.126-.236-.047-.08-.063-.1-.14-.204-.236-.393-.08-.2-.08-.424 0-.25.063-.377-1.352-.236-2.2-1.226-.833-1.006-.833-2.562 0-1.116.456-1.95.47-.85 1.304-1.304.85-.456 1.95-.456.833 0 1.43.22.613.204.96.52l-.754 1.367q-.66-.66-1.493-.66-1.006 0-1.54.613-.52.613-.52 1.635 0 1.163.534 1.807.55.644 1.525.644.487 0 .943-.14.472-.14.723-.33zm5.88.692q-1.116 0-1.98-.503-.864-.503-1.336-1.367-.472-.864-.472-1.917 0-1.037.456-1.902.472-.864 1.336-1.367.864-.503 1.996-.503 1.132 0 1.98.503.864.503 1.32 1.367.47.864.47 1.902 0 1.053-.47 1.917-.472.864-1.336 1.367-.85.503-1.965.503zm.047-1.383q.912 0 1.43-.676.534-.676.534-1.697 0-1.022-.566-1.713-.566-.707-1.493-.707-.896 0-1.446.692-.534.692-.534 1.73 0 1.006.582 1.697.582.676 1.493.676zm.96-7.48q-.472 0-.74-.14-.25-.14-.503-.4-.2-.22-.377-.33-.2-.1-.47-.1-.267 0-.55.22-.267.22-.47.676l-.723-1.1q.14-.487.582-.88.456-.393 1.132-.393.456 0 .74.157.3.14.52.393.22.236.4.346.204.1.487.1.283 0 .566-.22.3-.236.503-.707l.723 1.116q-.063.25-.33.55-.25.3-.66.52-.393.204-.833.204zm8.692 8.863q-1.3 0-2.153-.503-.864-.52-1.273-1.367-.4-.864-.4-1.886 0-1.147.472-2.012.487-.864 1.336-1.32.85-.472 1.917-.472 1.666 0 2.468.927.817.912.817 2.578 0 .424-.047.88h-5.187q.173.96.676 1.383.52.424 1.43.424.754 0 1.242-.126.487-.126.896-.346l.52 1.2q-.393.25-1.07.44-.676.2-1.635.2zm1.525-4.354q.016-.974-.424-1.367-.44-.4-1.257-.4-1.65 0-1.902 1.776zm6.462 4.354q-.754 0-1.572-.2-.802-.204-1.147-.472l.566-1.336q.943.66 2.153.66 1.2 0 1.2-.707 0-.314-.25-.487-.25-.173-.896-.4l-.597-.22q-.943-.377-1.493-.896-.55-.534-.55-1.4 0-1 .77-1.54.786-.566 2.1-.566.644 0 1.257.14.63.14.96.36l-.615 1.36q-.204-.204-.66-.346-.44-.157-1-.157-1.116 0-1.116.676 0 .377.3.582.3.2.974.424.063.016.487.173 1.006.393 1.493.896.487.503.487 1.3 0 1.07-.817 1.62-.802.55-2.043.55zm9.92-11.78h2.782q3.5 0 4.872 1.683 1.4 1.683 1.4 4.007 0 1.62-.597 2.997-.597 1.362-1.98 2.228-1.367.866-3.6.866h-2.876zm3.065 10.194q2.17 0 3.143-1.25 1-1.266 1-3.174 0-1.86-1-3.03-1-1.17-3.143-1.17h-1.304v8.623z"/><use xlink:href="#C"/><path d="M-189.553 33.68a5.86 5.86 0 0 1-1.587-.22c-.513-.147-.88-.283-1.1-.41l.377-1.572c.692.45 1.446.676 2.263.676.63 0 1.158-.152 1.587-.456s.65-.896.66-1.776v-1.29c-.22.41-.576.75-1.07 1.022a3.32 3.32 0 0 1-1.635.409c-.63 0-1.205-.152-1.73-.456-.524-.314-.938-.76-1.242-1.336s-.456-1.247-.456-2.012c0-.733.14-1.383.424-1.95a3.19 3.19 0 0 1 1.242-1.336c.534-.314 1.158-.472 1.87-.472.42 0 .812.073 1.18.22s.676.33.927.55c.262.2.435.42.52.63l.03-1.4h1.603v7.355c0 1.226-.314 2.17-.943 2.83s-1.603 1-2.923 1zm-.03-5.045a2.05 2.05 0 0 0 1.509-.613c.41-.42.613-.964.613-1.635v-.1c0-.45-.094-.854-.283-1.2s-.445-.634-.77-.833-.68-.3-1.07-.3c-.67 0-1.19.22-1.556.66-.367.43-.55 1-.55 1.682 0 .702.178 1.273.534 1.713.367.43.89.644 1.572.644z"/><use xlink:href="#C" x="14.224"/><path d="M-177.984 23.887h-1.273v-1.383h1.273v-2.75l1.713-.377v3.128h1.666v1.383h-1.666v6.177h-1.713zm9.07 6.177a3.7 3.7 0 0 1-1.807-.456c-.545-.314-.985-.754-1.32-1.32-.325-.576-.487-1.247-.487-2.012 0-.754.14-1.415.424-1.98.293-.566.707-1.006 1.242-1.32s1.163-.472 1.886-.472c.42 0 .812.073 1.18.22s.676.33.927.55c.25.2.42.42.503.63l.03-1.4h1.62v7.56h-1.603l-.03-1.43c-.178.377-.503.712-.974 1.006-.47.283-1 .424-1.587.424zm.283-1.415a2.05 2.05 0 0 0 1.509-.613c.4-.42.613-.964.613-1.635v-.1c0-.45-.094-.854-.283-1.2s-.445-.634-.77-.833-.68-.3-1.07-.3c-.67 0-1.2.22-1.556.66-.367.43-.55 1-.55 1.682 0 .702.178 1.273.534 1.713.367.43.9.644 1.572.644z"/><use xlink:href="#C" x="35.194"/><path d="M-155.57 30.064q-.754 0-1.572-.19-.802-.204-1.147-.472l.566-1.336q.943.66 2.153.66 1.2 0 1.2-.707 0-.314-.25-.487-.25-.173-.896-.41l-.597-.22q-.943-.377-1.493-.896-.55-.534-.55-1.4 0-1 .77-1.54.786-.566 2.1-.566.644 0 1.257.14.63.14.96.36l-.613 1.352q-.204-.204-.66-.346-.44-.157-1-.157-1.116 0-1.116.676 0 .377.3.582.3.19.974.424.063.016.487.173 1.006.393 1.493.896.487.503.487 1.29 0 1.07-.817 1.62-.802.55-2.043.55z"/></g></g></g></svg>