<?xml version="1.0" encoding="UTF-8" standalone="no"?>
<!-- Created with Inkscape (http://www.inkscape.org/) -->

<svg
   xmlns:dc="http://purl.org/dc/elements/1.1/"
   xmlns:cc="http://creativecommons.org/ns#"
   xmlns:rdf="http://www.w3.org/1999/02/22-rdf-syntax-ns#"
   xmlns:svg="http://www.w3.org/2000/svg"
   xmlns="http://www.w3.org/2000/svg"
   xmlns:xlink="http://www.w3.org/1999/xlink"
   xmlns:sodipodi="http://sodipodi.sourceforge.net/DTD/sodipodi-0.dtd"
   xmlns:inkscape="http://www.inkscape.org/namespaces/inkscape"
   width="165.84314mm"
   height="62.696121mm"
   viewBox="0 0 165.84314 62.696121"
   version="1.1"
   id="svg2923"
   inkscape:version="0.92.3 (2405546, 2018-03-11)"
   sodipodi:docname="logo-h-color.svg">
  <defs
     id="defs2917">
    <linearGradient
       inkscape:collect="always"
       xlink:href="#linearGradient3828"
       id="linearGradient2867"
       gradientUnits="userSpaceOnUse"
       gradientTransform="matrix(1.3992211,0,0,1.3992211,509.27222,-405.14391)"
       x1="34.210499"
       y1="188.07533"
       x2="66.095543"
       y2="188.07533" />
    <linearGradient
       id="linearGradient3828"
       inkscape:collect="always">
      <stop
         id="stop3822"
         offset="0"
         style="stop-color:#147bd1;stop-opacity:1" />
      <stop
         id="stop3826"
         offset="1"
         style="stop-color:#05c3dd;stop-opacity:1" />
    </linearGradient>
    <linearGradient
       inkscape:collect="always"
       xlink:href="#linearGradient3834"
       id="linearGradient2869"
       gradientUnits="userSpaceOnUse"
       gradientTransform="matrix(0.26458333,0,0,0.26458333,-359.07738,-292.64285)"
       x1="3401.8777"
       y1="719.00397"
       x2="3735.4062"
       y2="719.00397" />
    <linearGradient
       inkscape:collect="always"
       id="linearGradient3834">
      <stop
         style="stop-color:#05c3dd;stop-opacity:1"
         offset="0"
         id="stop3830" />
      <stop
         style="stop-color:#147bd1;stop-opacity:1"
         offset="1"
         id="stop3832" />
    </linearGradient>
  </defs>
  <sodipodi:namedview
     id="base"
     pagecolor="#ffffff"
     bordercolor="#666666"
     borderopacity="1.0"
     inkscape:pageopacity="0.0"
     inkscape:pageshadow="2"
     inkscape:zoom="1.1438897"
     inkscape:cx="313.40435"
     inkscape:cy="118.48086"
     inkscape:document-units="mm"
     inkscape:current-layer="layer1"
     showgrid="false"
     fit-margin-top="0"
     fit-margin-left="0"
     fit-margin-right="0"
     fit-margin-bottom="0"
     inkscape:window-width="1366"
     inkscape:window-height="743"
     inkscape:window-x="0"
     inkscape:window-y="312"
     inkscape:window-maximized="1" />
  <metadata
     id="metadata2920">
    <rdf:RDF>
      <cc:Work
         rdf:about="">
        <dc:format>image/svg+xml</dc:format>
        <dc:type
           rdf:resource="http://purl.org/dc/dcmitype/StillImage" />
        <dc:title></dc:title>
      </cc:Work>
    </rdf:RDF>
  </metadata>
  <g
     inkscape:label="Camada 1"
     inkscape:groupmode="layer"
     id="layer1"
     transform="translate(-135.54867,5.7349469)">
    <g
       transform="matrix(0.57824944,0,0,0.57824944,-177.28583,89.266972)"
       id="g2814">
      <g
         id="g2810"
         transform="translate(-0.0766645)">
        <path
           style="opacity:1;vector-effect:none;fill:url(#linearGradient2867);fill-opacity:1;stroke:none;stroke-width:0.68795604px;stroke-linecap:butt;stroke-linejoin:miter;stroke-miterlimit:4;stroke-dasharray:none;stroke-dashoffset:0;stroke-opacity:1"
           d="m 565.66064,-164.29228 a 8.5207199,8.5207199 0 0 0 -8.52063,8.52063 v 13.78673 c 0,6.15995 2.49684,11.73694 6.53364,15.77371 4.03679,4.0368 9.61378,6.53364 15.77371,6.53364 12.31988,0 22.30736,-9.98748 22.30737,-22.30735 -10e-6,-12.31988 -9.98749,-22.30736 -22.30736,-22.30736 z"
           id="path2808"
           inkscape:connector-curvature="0" />
      </g>
      <path
         inkscape:connector-curvature="0"
         id="path2812"
         d="m 557.06359,-148.94465 v 5.3e-4 c 0,0 0,0.0302 0,0.032 z m 0,0.0326 v 48.92983 l 0.44905,-0.06046 c 0.0508,-0.006 0.10121,-0.009 0.15092,-0.009 v 5.3e-4 c 0.14899,0.003 0.29139,0.0387 0.41908,0.101807 0.28387,0.140308 0.49474,0.415268 0.54054,0.753956 l 0.5488,4.059703 c 0.0733,0.541917 -0.30351,1.036807 -0.84542,1.110009 l -1.22577,0.165881 -0.0372,-4.496366 v 6.394442 c -2e-5,1.015145 0,1.643618 0,2.648934 l 0.72605,-0.09819 c 0.0363,-0.006 0.0725,-0.0062 0.108,-0.0062 v 5.29e-4 c 0.10639,0.0016 0.20841,0.02683 0.29972,0.07183 0.20275,0.1002 0.35332,0.29708 0.38603,0.538985 l 0.13798,1.022678 c 0.0523,0.38711 -0.21704,0.74145 -0.60413,0.79375 l -1.0237,0.138494 c -0.006,1.61e-4 -0.0122,0 -0.018,0 -0.004,-0.557564 -0.008,-1.020323 -0.0119,-1.489316 v -0.97255 l -0.29766,0.04031 c -0.38709,0.0523 -0.65643,0.406143 -0.6041,0.793234 l 0.13851,1.023194 c 0.051,0.37714 0.38799,0.640596 0.76325,0.605647 -6e-5,8.463621 -8e-5,16.897879 0,22.461677 8e-5,4.70579 3.81463,8.520354 8.5204,8.520409 0,0 21.68512,6.1e-5 27.573,0 19.93362,-1.67e-4 36.09258,-16.159773 36.09236,-36.093402 -1.8e-4,-19.933355 -16.15903,-36.092195 -36.09236,-36.092375 h -11.4489 -3.20963 c -10.22107,-3e-5 -20.48409,-9.17112 -21.41731,-19.80861 -0.008,-0.008 -0.0164,-0.98965 -0.0169,-1.04954 z m -5.79085,31.27199 -0.5266,0.0708 c -0.14634,0.0199 -0.24821,0.1539 -0.22842,0.30024 l 0.0713,0.52658 c 0.0198,0.14635 0.15338,0.2482 0.29972,0.22841 l 0.52658,-0.0713 c 0.14634,-0.0199 0.24818,-0.15338 0.22841,-0.29972 l -0.0708,-0.52659 c -0.0198,-0.14636 -0.15386,-0.2482 -0.30022,-0.22841 z m -3.54968,4.06642 c -0.0287,-0.003 -0.0582,1e-4 -0.0878,0.003 l -0.85214,0.11524 c -0.23689,0.032 -0.40201,0.24836 -0.37,0.48524 l 0.11523,0.85266 c 0.032,0.23688 0.24892,0.4015 0.48577,0.36949 l 0.85215,-0.11524 c 0.23685,-0.032 0.402,-0.24839 0.36999,-0.48524 l -0.11525,-0.85215 c -0.028,-0.20725 -0.19735,-0.35974 -0.39791,-0.3731 z m -2.65358,4.48965 v 5.3e-4 c -0.0464,-0.003 -0.0937,-2.7e-4 -0.14158,0.005 l -1.37925,0.18604 c -0.38322,0.0518 -0.64971,0.40228 -0.59791,0.78548 l 0.18656,1.37873 c 0.0518,0.3832 0.40177,0.65022 0.78497,0.59841 l 1.37924,-0.18655 c 0.3832,-0.0518 0.64972,-0.40178 0.59791,-0.78497 l -0.18656,-1.37924 c -0.0453,-0.33528 -0.31893,-0.58145 -0.64338,-0.60307 z m 56.01985,4.01681 c 1.33329,-0.011 2.41509,1.05313 2.42621,2.38642 l 0.14986,18.074861 c 0.0111,1.333291 -1.05363,2.415109 -2.38694,2.426208 l -18.07435,0.149863 c -1.33329,0.01103 -2.41562,-1.053645 -2.42673,-2.386936 l -0.14933,-18.074346 c -0.0111,-1.33329 1.05312,-2.41563 2.38641,-2.42673 z m -50.23622,0.13022 c -0.0468,-0.003 -0.0948,-0.003 -0.14314,0.005 l -1.0232,0.13798 c -0.38708,0.0523 -0.65691,0.40666 -0.6046,0.79375 l 0.13849,1.02371 c 0.0523,0.38708 0.40613,0.65592 0.79322,0.60358 l 1.02372,-0.13798 c 0.38711,-0.0523 0.65638,-0.40666 0.6041,-0.79375 l -0.13848,-1.02319 c -0.0458,-0.3387 -0.32237,-0.58692 -0.65011,-0.60875 z m 18.6273,0.92656 4.43796,0.23771 c 0.46805,0.0251 0.82455,0.42183 0.79944,0.88987 l -0.2372,4.437456 c -0.0251,0.46808 -0.42283,0.824535 -0.8909,0.799434 l -4.43746,-0.237194 c -0.46805,-0.02506 -0.82452,-0.422344 -0.79944,-0.890384 l 0.23773,-4.437452 c 0.0251,-0.46805 0.42177,-0.82454 0.88987,-0.79944 z m -7.11793,1.13792 v 0 c 0.20056,0.0134 0.36992,0.16533 0.39791,0.37258 l 0.11523,0.85267 c 0.032,0.23685 -0.13314,0.45324 -0.37,0.48524 l -0.85214,0.11524 c -0.23686,0.032 -0.45376,-0.13263 -0.48575,-0.36949 l -0.11525,-0.85266 c -0.032,-0.23686 0.13314,-0.45324 0.36999,-0.48525 l 0.85214,-0.11523 c 0.0296,-0.003 0.0582,-0.006 0.0868,-0.003 z m -20.04578,0.88625 c -0.0286,-0.003 -0.0583,1e-4 -0.0879,0.003 l -0.85214,0.11524 c -0.23689,0.032 -0.40201,0.24839 -0.37,0.48524 l 0.11523,0.85266 c 0.032,0.23685 0.24836,0.40153 0.48524,0.36949 l 0.85268,-0.11524 c 0.23688,-0.032 0.4015,-0.24839 0.36946,-0.48524 l -0.11522,-0.85215 c -0.028,-0.20724 -0.19683,-0.35974 -0.39738,-0.3731 z m 14.74636,2.004526 -3.61063,0.488342 c -0.54192,0.0733 -0.91916,0.568608 -0.84593,1.110527 l 0.5488,4.060217 c 0.0732,0.541919 0.56862,0.919183 1.11054,0.845944 l 2.79722,-0.378272 z m -8.91934,0.540536 c -0.0286,-0.003 -0.0577,1.01e-4 -0.0873,0.0031 l -0.85264,0.115236 c -0.23686,0.032 -0.40151,0.248394 -0.36949,0.485244 l 0.11522,0.852143 c 0.032,0.236882 0.24837,0.402013 0.48525,0.370004 l 0.85214,-0.115239 c 0.23686,-0.032 0.40201,-0.248362 0.36999,-0.485241 l -0.11522,-0.852662 c -0.028,-0.207251 -0.19735,-0.359227 -0.39791,-0.372586 z m 15.92202,0.349848 v 5.29e-4 c 0.32446,0.02162 0.59806,0.267753 0.64339,0.603062 l 0.18653,1.378728 c 0.0518,0.383191 -0.21469,0.733682 -0.59788,0.785482 l -1.37925,0.186552 c -0.38319,0.05178 -0.73316,-0.215212 -0.78496,-0.598413 l -0.18656,-1.379244 c -0.0518,-0.38322 0.21471,-0.733163 0.5979,-0.784966 l 1.37925,-0.186552 c 0.0479,-0.008 0.0952,-0.0082 0.14158,-0.0052 z m -19.83081,3.5233 v 5.29e-4 c -0.0468,-0.003 -0.0947,-0.0034 -0.14317,0.0047 l -1.17306,0.158647 c -0.38706,0.0523 -0.6564,0.405627 -0.60409,0.792715 l 0.15864,1.173057 c 0.0523,0.387109 0.40563,0.656952 0.79272,0.604613 l 1.17359,-0.158129 c 0.38711,-0.0523 0.65643,-0.40664 0.60409,-0.79375 l -0.15864,-1.173056 c -0.0458,-0.338688 -0.32234,-0.587434 -0.65008,-0.609264 z m 27.79776,3.632335 c 0.70051,-0.06049 1.31357,0.454459 1.37408,1.15497 l 0.62632,7.24917 c 0.0605,0.70049 -0.455,1.313061 -1.15548,1.373558 l -7.24866,0.626319 c -0.70051,0.06051 -1.31408,-0.455004 -1.37459,-1.155485 l -0.62579,-7.248652 c -0.0605,-0.70049 0.45447,-1.313577 1.15496,-1.374077 z m -24.07709,2.895431 -0.52657,0.07131 c -0.14637,0.0199 -0.24821,0.153353 -0.22842,0.299723 l 0.0713,0.526582 c 0.0198,0.146359 0.15338,0.2482 0.29972,0.228409 l 0.52657,-0.07131 c 0.14634,-0.0199 0.24818,-0.153413 0.22841,-0.299722 l -0.0708,-0.526582 c -0.0198,-0.146352 -0.15391,-0.248171 -0.30025,-0.228412 z m 6.66369,0.70435 c -0.0468,-0.003 -0.0948,-0.0034 -0.14314,0.0047 l -2.34095,0.316778 c -0.38709,0.0523 -0.65643,0.406143 -0.6041,0.793231 l 0.31626,2.340944 c 0.0523,0.38709 0.40616,0.656428 0.79325,0.604096 l 2.34092,-0.316259 c 0.38712,-0.0523 0.65644,-0.406143 0.6041,-0.793234 l -0.31626,-2.34094 c -0.0458,-0.33872 -0.32234,-0.587436 -0.65008,-0.609267 z"
         style="opacity:1;vector-effect:none;fill:url(#linearGradient2869);fill-opacity:1;stroke:none;stroke-width:1.03777027px;stroke-linecap:butt;stroke-linejoin:miter;stroke-miterlimit:4;stroke-dasharray:none;stroke-dashoffset:0;stroke-opacity:1" />
    </g>
    <g
       style="fill:#00a9e0;fill-opacity:1"
       transform="matrix(1.0205722,0,0,1.0205722,-814.40641,115.31385)"
       id="g2827">
      <path
         inkscape:connector-curvature="0"
         id="path2816"
         style="font-style:normal;font-variant:normal;font-weight:normal;font-stretch:normal;font-size:medium;line-height:1.25;font-family:Alata;-inkscape-font-specification:Alata;letter-spacing:1.00541663px;word-spacing:0px;fill:#00a9e0;fill-opacity:1;stroke-width:0.85034019"
         d="m 993.30648,-109.64261 h 6.36056 q 5.37416,0 7.14286,1.80272 1.7687,1.80272 1.7687,4.35374 0,1.70068 -0.7483,3.2313 -0.7483,1.496595 -2.381,2.244894 2.381,0.37415 3.5374,2.006803 1.1565,1.59864 1.1565,3.741498 0,2.176869 -0.6803,3.809523 -0.6802,1.632653 -2.8231,2.721088 -2.1429,1.088435 -6.1905,1.088435 h -7.14282 z m 6.97272,10.612246 q 2.415,0 3.4354,-1.156466 1.0204,-1.19047 1.0204,-2.99319 0,-3.2313 -4.6258,-3.2313 h -3.06122 v 7.380956 z m 0.6803,11.190478 q 3.0953,0 4.1497,-1.22449 1.0884,-1.258505 1.0884,-3.163266 0,-1.802722 -1.2245,-2.789116 -1.2245,-0.986395 -3.7075,-0.986395 h -4.21762 v 8.163267 z" />
      <path
         inkscape:connector-curvature="0"
         id="path2818"
         style="font-style:normal;font-variant:normal;font-weight:normal;font-stretch:normal;font-size:medium;line-height:1.25;font-family:Alata;-inkscape-font-specification:Alata;letter-spacing:1.00541663px;word-spacing:0px;fill:#00a9e0;fill-opacity:1;stroke-width:0.82345194"
         d="m 1025.9357,-109.64261 11.8577,25.000001 h -4.249 l -2.0751,-4.743082 h -11.1001 l -2.0751,4.743082 h -4.1173 z m 4.0843,16.930173 -4.0514,-9.255603 -4.1172,9.255603 z" />
      <path
         inkscape:connector-curvature="0"
         id="path2820"
         style="font-style:normal;font-variant:normal;font-weight:normal;font-stretch:normal;font-size:medium;line-height:1.25;font-family:Alata;-inkscape-font-specification:Alata;letter-spacing:1.00541663px;word-spacing:0px;fill:#00a9e0;fill-opacity:1;stroke-width:0.82345194"
         d="m 1041.827,-109.64261 h 3.689 v 25.000001 h -3.689 z"
         sodipodi:nodetypes="ccccc" />
      <path
         inkscape:connector-curvature="0"
         id="path2822"
         style="font-style:normal;font-variant:normal;font-weight:normal;font-stretch:normal;font-size:medium;line-height:1.25;font-family:Alata;-inkscape-font-specification:Alata;letter-spacing:1.00541663px;word-spacing:0px;fill:#00a9e0;fill-opacity:1;stroke-width:0.82345194"
         d="m 1055.742,-106.41468 h -6.1923 v -3.22793 h 16.1067 v 3.22793 h -6.2583 v 21.772071 h -3.6561 z"
         sodipodi:nodetypes="ccccccccc" />
      <path
         inkscape:connector-curvature="0"
         id="path2824"
         style="font-style:normal;font-variant:normal;font-weight:normal;font-stretch:normal;font-size:medium;line-height:1.25;font-family:Alata;-inkscape-font-specification:Alata;letter-spacing:1.00541663px;word-spacing:0px;fill:#00a9e0;fill-opacity:1;stroke-width:0.82345194"
         d="m 1081.4488,-109.64261 11.8577,25.000001 h -4.249 l -2.0751,-4.743082 h -11.1001 l -2.0751,4.743082 h -4.1173 z m 4.0843,16.930173 -4.0514,-9.255603 -4.1172,9.255603 z" />
    </g>
    <g
       id="g2865"
       style="fill:#00a9e0;fill-opacity:1"
       transform="matrix(0.80369026,0,0,0.80369026,424.12286,20.695912)">
      <g
         id="g2845"
         style="fill:#00a9e0;fill-opacity:1">
        <path
           id="path2829"
           style="font-style:normal;font-variant:normal;font-weight:normal;font-stretch:normal;font-size:medium;line-height:1.25;font-family:Alata;-inkscape-font-specification:Alata;letter-spacing:0px;word-spacing:0px;fill:#00a9e0;fill-opacity:1;stroke-width:0.39292076"
           d="m -276.48898,30.063832 q -0.94301,0 -1.8703,-0.330053 -0.92729,-0.330054 -1.33593,-0.738691 l 0.83299,-1.493099 q 0.33006,0.29862 1.0216,0.628673 0.70725,0.314337 1.35164,0.314337 0.833,0 1.35165,-0.392921 0.53437,-0.392921 0.53437,-1.084462 0,-0.534372 -0.2829,-0.927293 -0.2829,-0.39292 -0.69154,-0.64439 -0.40864,-0.267186 -1.16304,-0.64439 -0.89586,-0.440071 -1.22592,-0.660107 -1.52453,-1.021594 -1.52453,-2.829029 0,-1.493099 0.99016,-2.278941 0.99016,-0.801558 2.49898,-0.801558 1.61883,0 2.75044,0.927293 l -0.83299,1.430231 q -0.29862,-0.314336 -0.84871,-0.534372 -0.53437,-0.235752 -1.14733,-0.235752 -0.78584,0 -1.24163,0.361487 -0.44007,0.34577 -0.44007,1.037311 0,0.487222 0.2829,0.880142 0.28291,0.377204 0.70726,0.660107 0.44007,0.282903 1.17876,0.691541 0.70726,0.392921 1.08447,0.628673 0.3772,0.220036 0.70725,0.534372 0.45579,0.408638 0.73869,0.974444 0.28291,0.565806 0.28291,1.241629 0,1.053028 -0.48723,1.791719 -0.4715,0.738691 -1.32021,1.115895 -0.83299,0.377204 -1.90174,0.377204 z"
           inkscape:connector-curvature="0" />
        <path
           id="path2831"
           style="font-style:normal;font-variant:normal;font-weight:normal;font-stretch:normal;font-size:medium;line-height:1.25;font-family:Alata;-inkscape-font-specification:Alata;letter-spacing:0px;word-spacing:0px;fill:#00a9e0;fill-opacity:1;stroke-width:0.39292076"
           d="m -266.8994,30.063832 q -1.11589,0 -1.98032,-0.502938 -0.86443,-0.502939 -1.33593,-1.367365 -0.47151,-0.864425 -0.47151,-1.917453 0,-1.037311 0.45579,-1.901737 0.47151,-0.864425 1.33593,-1.367364 0.86443,-0.502939 1.99604,-0.502939 1.13161,0 1.98032,0.502939 0.86443,0.502939 1.32021,1.367364 0.47151,0.864426 0.47151,1.901737 0,1.053028 -0.47151,1.917453 -0.4715,0.864426 -1.33593,1.367365 -0.8487,0.502938 -1.9646,0.502938 z m 0.0471,-1.383081 q 0.91158,0 1.43023,-0.675824 0.53437,-0.675823 0.53437,-1.697417 0,-1.021594 -0.5658,-1.713135 -0.56581,-0.707257 -1.4931,-0.707257 -0.89586,0 -1.44595,0.69154 -0.53437,0.691541 -0.53437,1.728852 0,1.005877 0.58152,1.697417 0.58152,0.675824 1.4931,0.675824 z"
           inkscape:connector-curvature="0" />
        <path
           id="path2833"
           style="font-style:normal;font-variant:normal;font-weight:normal;font-stretch:normal;font-size:medium;line-height:1.25;font-family:Alata;-inkscape-font-specification:Alata;letter-spacing:0px;word-spacing:0px;fill:#00a9e0;fill-opacity:1;stroke-width:0.39292076"
           d="m -261.03472,18.283214 h 1.6817 v 11.78062 h -1.6817 z"
           inkscape:connector-curvature="0"
           sodipodi:nodetypes="ccccc" />
        <path
           id="path2835"
           style="font-style:normal;font-variant:normal;font-weight:normal;font-stretch:normal;font-size:medium;line-height:1.25;font-family:Alata;-inkscape-font-specification:Alata;letter-spacing:0px;word-spacing:0px;fill:#00a9e0;fill-opacity:1;stroke-width:0.39292076"
           d="m -254.6514,30.063832 c -0.9954,0 -1.6817,-0.293381 -2.0589,-0.880142 -0.36673,-0.586762 -0.55009,-1.404037 -0.55009,-2.451826 v -4.039226 h 1.69742 v 3.614872 c 0,0.597239 0.0314,1.063505 0.0943,1.398798 0.0733,0.324814 0.20955,0.565805 0.40863,0.722974 0.20956,0.157168 0.51866,0.235752 0.9273,0.235752 0.29338,0 0.57628,-0.08382 0.84871,-0.251469 0.27242,-0.167646 0.49245,-0.392921 0.6601,-0.675824 0.17813,-0.293381 0.26719,-0.612956 0.26719,-0.958727 v -4.086376 h 1.6817 v 7.371196 h -1.38308 l -0.1886,-1.210198 c -0.26195,0.408638 -0.592,0.712497 -0.99016,0.911576 -0.38769,0.19908 -0.85919,0.29862 -1.41452,0.29862 z"
           inkscape:connector-curvature="0"
           sodipodi:nodetypes="scsccsccsccsccccccs" />
        <path
           id="path2837"
           style="font-style:normal;font-variant:normal;font-weight:normal;font-stretch:normal;font-size:medium;line-height:1.25;font-family:Alata;-inkscape-font-specification:Alata;letter-spacing:0px;word-spacing:0px;fill:#00a9e0;fill-opacity:1;stroke-width:0.39292076"
           d="m -242.45277,29.372292 q -0.29862,0.220035 -0.80156,0.424354 -0.48722,0.188602 -1.10017,0.251469 0.0629,0.204319 0.29862,0.502939 0.26718,0.361487 0.39292,0.660107 0.14145,0.29862 0.14145,0.738691 0,1.084461 -0.64439,1.5874 -0.62868,0.518655 -1.72885,0.518655 -0.37721,0 -0.84871,-0.07858 l 0.14145,-1.461665 q 0.22003,0.03143 0.44007,0.03143 1.11589,0 1.11589,-0.707258 0,-0.141451 -0.0629,-0.29862 -0.0629,-0.141451 -0.12574,-0.235752 -0.0471,-0.07858 -0.0629,-0.110018 -0.14146,-0.204319 -0.23576,-0.392921 -0.0786,-0.188602 -0.0786,-0.424354 0,-0.251469 0.0629,-0.377204 -1.35165,-0.235753 -2.20036,-1.225913 -0.83299,-1.005877 -0.83299,-2.561843 0,-1.115895 0.45579,-1.948888 0.4715,-0.848708 1.30449,-1.304496 0.84871,-0.455789 1.94889,-0.455789 0.83299,0 1.43023,0.220036 0.61296,0.204319 0.95873,0.518655 l -0.75441,1.367365 q -0.66011,-0.660107 -1.4931,-0.660107 -1.00588,0 -1.54025,0.612956 -0.51865,0.612957 -0.51865,1.634551 0,1.163045 0.53437,1.807435 0.55009,0.64439 1.52453,0.64439 0.48722,0 0.94301,-0.141451 0.47151,-0.141452 0.72298,-0.330054 z"
           inkscape:connector-curvature="0" />
        <path
           id="path2839"
           style="font-style:normal;font-variant:normal;font-weight:normal;font-stretch:normal;font-size:medium;line-height:1.25;font-family:Alata;-inkscape-font-specification:Alata;letter-spacing:0px;word-spacing:0px;fill:#00a9e0;fill-opacity:1;stroke-width:0.39292076"
           d="m -236.57237,30.063832 q -1.11589,0 -1.98032,-0.502938 -0.86443,-0.502939 -1.33593,-1.367365 -0.47151,-0.864425 -0.47151,-1.917453 0,-1.037311 0.45579,-1.901737 0.47151,-0.864425 1.33593,-1.367364 0.86443,-0.502939 1.99604,-0.502939 1.13161,0 1.98032,0.502939 0.86443,0.502939 1.32022,1.367364 0.4715,0.864426 0.4715,1.901737 0,1.053028 -0.4715,1.917453 -0.47151,0.864426 -1.33593,1.367365 -0.84871,0.502938 -1.96461,0.502938 z m 0.0471,-1.383081 q 0.91158,0 1.43023,-0.675824 0.53438,-0.675823 0.53438,-1.697417 0,-1.021594 -0.56581,-1.713135 -0.56581,-0.707257 -1.4931,-0.707257 -0.89586,0 -1.44595,0.69154 -0.53437,0.691541 -0.53437,1.728852 0,1.005877 0.58152,1.697417 0.58153,0.675824 1.4931,0.675824 z m 0.95873,-7.481212 q -0.47151,0 -0.73869,-0.141451 -0.25147,-0.141452 -0.50294,-0.408638 -0.1886,-0.220035 -0.37721,-0.330053 -0.1886,-0.110018 -0.4715,-0.110018 -0.26719,0 -0.55009,0.220036 -0.26719,0.220035 -0.4715,0.675823 l -0.72298,-1.100178 q 0.14145,-0.487222 0.58152,-0.880142 0.45579,-0.392921 1.13162,-0.392921 0.45578,0 0.73869,0.157168 0.29862,0.141452 0.51865,0.392921 0.22004,0.235752 0.40864,0.34577 0.20432,0.110018 0.48722,0.110018 0.28291,0 0.56581,-0.220036 0.29862,-0.235752 0.50294,-0.707257 l 0.72297,1.115895 q -0.0629,0.251469 -0.33005,0.550089 -0.25147,0.29862 -0.66011,0.518656 -0.39292,0.204318 -0.83299,0.204318 z"
           inkscape:connector-curvature="0" />
        <path
           id="path2841"
           style="font-style:normal;font-variant:normal;font-weight:normal;font-stretch:normal;font-size:medium;line-height:1.25;font-family:Alata;-inkscape-font-specification:Alata;letter-spacing:0px;word-spacing:0px;fill:#00a9e0;fill-opacity:1;stroke-width:0.39292076"
           d="m -226.87278,30.063832 q -1.28878,0 -2.15321,-0.502938 -0.86442,-0.518656 -1.27306,-1.367365 -0.40864,-0.864425 -0.40864,-1.886019 0,-1.147329 0.47151,-2.011755 0.48722,-0.864426 1.33593,-1.320214 0.84871,-0.471505 1.91745,-0.471505 1.66599,0 2.46754,0.927293 0.81728,0.911577 0.81728,2.577561 0,0.424354 -0.0471,0.880142 h -5.18656 q 0.17289,0.958727 0.67583,1.383081 0.51865,0.424355 1.43023,0.424355 0.75441,0 1.24163,-0.125735 0.48722,-0.125734 0.89586,-0.34577 l 0.51865,1.210196 q -0.39292,0.251469 -1.06874,0.440071 -0.67582,0.188602 -1.63455,0.188602 z m 1.52453,-4.353562 q 0.0157,-0.974444 -0.42435,-1.367364 -0.44007,-0.408638 -1.25735,-0.408638 -1.65027,0 -1.90174,1.776002 z"
           inkscape:connector-curvature="0" />
        <path
           id="path2843"
           style="font-style:normal;font-variant:normal;font-weight:normal;font-stretch:normal;font-size:medium;line-height:1.25;font-family:Alata;-inkscape-font-specification:Alata;letter-spacing:0px;word-spacing:0px;fill:#00a9e0;fill-opacity:1;stroke-width:0.39292076"
           d="m -218.88633,30.063832 q -0.7544,0 -1.57168,-0.188602 -0.80156,-0.204319 -1.14733,-0.471505 l 0.56581,-1.33593 q 0.94301,0.660107 2.1532,0.660107 1.2102,0 1.2102,-0.707258 0,-0.314336 -0.25147,-0.487222 -0.25147,-0.172885 -0.89586,-0.408637 l -0.59724,-0.220036 q -0.94301,-0.377204 -1.4931,-0.895859 -0.55009,-0.534373 -0.55009,-1.398798 0,-0.990161 0.77013,-1.54025 0.78584,-0.565806 2.09034,-0.565806 0.64439,0 1.25734,0.141452 0.62868,0.141451 0.95873,0.361487 l -0.61296,1.351647 q -0.20432,-0.204318 -0.6601,-0.34577 -0.44007,-0.157168 -0.99016,-0.157168 -1.1159,0 -1.1159,0.675824 0,0.377204 0.29862,0.581522 0.29862,0.188602 0.97444,0.424355 0.0629,0.01572 0.48723,0.172885 1.00587,0.392921 1.4931,0.895859 0.48722,0.502939 0.48722,1.288781 0,1.068744 -0.81728,1.618833 -0.80156,0.550089 -2.04319,0.550089 z"
           inkscape:connector-curvature="0" />
      </g>
      <g
         id="g2863"
         style="fill:#00a9e0;fill-opacity:1">
        <path
           id="path2847"
           style="font-style:normal;font-variant:normal;font-weight:normal;font-stretch:normal;font-size:medium;line-height:1.25;font-family:Alata;-inkscape-font-specification:Alata;letter-spacing:0px;word-spacing:0px;fill:#00a9e0;fill-opacity:1;stroke-width:0.39679196"
           d="m -208.96534,18.283214 h 2.78188 q 3.48914,0 4.87222,1.682945 1.3988,1.682947 1.3988,4.007014 0,1.618833 -0.59724,2.997246 -0.59724,1.362385 -1.98032,2.2279 -1.36737,0.865515 -3.59916,0.865515 h -2.87618 z m 3.06479,10.193842 q 2.16892,0 3.14336,-1.250188 0.99016,-1.266216 0.99016,-3.173555 0,-1.859253 -0.99016,-3.029302 -0.99016,-1.170048 -3.14336,-1.170048 h -1.3045 v 8.623093 z"
           inkscape:connector-curvature="0" />
        <path
           id="path2849"
           style="font-style:normal;font-variant:normal;font-weight:normal;font-stretch:normal;font-size:medium;line-height:1.25;font-family:Alata;-inkscape-font-specification:Alata;letter-spacing:0px;word-spacing:0px;fill:#00a9e0;fill-opacity:1;stroke-width:0.39292076"
           d="m -197.55414,22.504034 h 1.76029 v 7.5598 h -1.76029 z m 0.86443,-1.163043 c -0.32481,0 -0.59724,-0.110018 -0.81728,-0.330054 -0.22003,-0.220035 -0.33005,-0.49246 -0.33005,-0.817275 0,-0.293381 0.11002,-0.54485 0.33005,-0.754408 0.22004,-0.209557 0.49247,-0.314336 0.81728,-0.314336 0.31433,0 0.58152,0.104779 0.80156,0.314336 0.22003,0.209558 0.33005,0.461027 0.33005,0.754408 0,0.324815 -0.11002,0.59724 -0.33005,0.817275 -0.20956,0.220036 -0.47675,0.330054 -0.80156,0.330054 z"
           inkscape:connector-curvature="0"
           sodipodi:nodetypes="cccccscscscscs" />
        <path
           id="path2851"
           style="font-style:normal;font-variant:normal;font-weight:normal;font-stretch:normal;font-size:medium;line-height:1.25;font-family:Alata;-inkscape-font-specification:Alata;letter-spacing:0px;word-spacing:0px;fill:#00a9e0;fill-opacity:1;stroke-width:0.39292076"
           d="m -189.5535,33.678703 c -0.53437,0 -1.06351,-0.07334 -1.5874,-0.220035 -0.51342,-0.146691 -0.88015,-0.282903 -1.10018,-0.408638 l 0.3772,-1.571683 c 0.69154,0.450549 1.44595,0.675824 2.26323,0.675824 0.62867,0 1.15781,-0.151929 1.5874,-0.455788 0.42959,-0.303859 0.64963,-0.895859 0.6601,-1.776002 v -1.28878 c -0.22003,0.408637 -0.57628,0.749169 -1.06874,1.021594 -0.49246,0.272425 -1.03731,0.408637 -1.63455,0.408637 -0.62867,0 -1.20496,-0.151929 -1.72885,-0.455788 -0.5239,-0.314337 -0.93778,-0.759647 -1.24163,-1.335931 -0.30386,-0.576283 -0.45579,-1.246868 -0.45579,-2.011754 0,-0.733452 0.14145,-1.383081 0.42435,-1.948887 0.29338,-0.576284 0.70726,-1.021594 1.24163,-1.335931 0.53437,-0.314337 1.15781,-0.471505 1.87031,-0.471505 0.41911,0 0.81203,0.07334 1.17876,0.220036 0.36673,0.146691 0.67582,0.330054 0.92729,0.550089 0.26195,0.209558 0.43483,0.419116 0.51866,0.628673 l 0.0314,-1.3988 h 1.60312 v 7.355479 c 0,1.225913 -0.31434,2.168923 -0.94301,2.82903 -0.62867,0.660107 -1.60312,0.99016 -2.92333,0.99016 z m -0.0314,-5.045102 c 0.59724,0 1.10018,-0.204319 1.50882,-0.612957 0.40863,-0.419115 0.61295,-0.963965 0.61295,-1.63455 v -0.110018 c 0,-0.450549 -0.0943,-0.853948 -0.2829,-1.210196 -0.1886,-0.356248 -0.44531,-0.633912 -0.77012,-0.832992 -0.32481,-0.19908 -0.68106,-0.29862 -1.06875,-0.29862 -0.67058,0 -1.18923,0.220036 -1.55596,0.660107 -0.36673,0.429593 -0.55009,0.99016 -0.55009,1.681701 0,0.702019 0.17812,1.273063 0.53437,1.713134 0.36673,0.429594 0.89062,0.644391 1.57168,0.644391 z"
           inkscape:connector-curvature="0"
           sodipodi:nodetypes="ccccsscccsccscsssccccssccscssssscscs" />
        <path
           id="path2853"
           style="font-style:normal;font-variant:normal;font-weight:normal;font-stretch:normal;font-size:medium;line-height:1.25;font-family:Alata;-inkscape-font-specification:Alata;letter-spacing:0px;word-spacing:0px;fill:#00a9e0;fill-opacity:1;stroke-width:0.39292076"
           d="m -183.3289,22.504034 h 1.76029 v 7.5598 h -1.76029 z m 0.86443,-1.163043 c -0.32481,0 -0.59724,-0.110018 -0.81728,-0.330054 -0.22003,-0.220035 -0.33005,-0.49246 -0.33005,-0.817275 0,-0.293381 0.11002,-0.54485 0.33005,-0.754408 0.22004,-0.209557 0.49247,-0.314336 0.81728,-0.314336 0.31433,0 0.58152,0.104779 0.80156,0.314336 0.22003,0.209558 0.33005,0.461027 0.33005,0.754408 0,0.324815 -0.11002,0.59724 -0.33005,0.817275 -0.20956,0.220036 -0.47675,0.330054 -0.80156,0.330054 z"
           inkscape:connector-curvature="0"
           sodipodi:nodetypes="cccccscscscscs" />
        <path
           id="path2855"
           style="font-style:normal;font-variant:normal;font-weight:normal;font-stretch:normal;font-size:medium;line-height:1.25;font-family:Alata;-inkscape-font-specification:Alata;letter-spacing:0px;word-spacing:0px;fill:#00a9e0;fill-opacity:1;stroke-width:0.39292076"
           d="m -177.98439,23.887116 h -1.27307 v -1.383082 h 1.27307 v -2.750443 l 1.71313,-0.377204 v 3.127647 h 1.66599 v 1.383082 h -1.66599 v 6.176718 h -1.71313 z"
           inkscape:connector-curvature="0"
           sodipodi:nodetypes="ccccccccccccc" />
        <path
           id="path2857"
           style="font-style:normal;font-variant:normal;font-weight:normal;font-stretch:normal;font-size:medium;line-height:1.25;font-family:Alata;-inkscape-font-specification:Alata;letter-spacing:0px;word-spacing:0px;fill:#00a9e0;fill-opacity:1;stroke-width:0.39292076"
           d="m -168.91501,30.063832 c -0.64963,0 -1.2521,-0.151929 -1.80743,-0.455788 -0.54485,-0.314337 -0.98492,-0.754408 -1.32021,-1.320214 -0.32482,-0.576283 -0.48723,-1.246868 -0.48723,-2.011754 0,-0.754408 0.14145,-1.414515 0.42436,-1.980321 0.29338,-0.565806 0.70726,-1.005877 1.24163,-1.320214 0.53437,-0.314337 1.16305,-0.471505 1.88602,-0.471505 0.41911,0 0.81203,0.07334 1.17876,0.220036 0.36673,0.146691 0.67582,0.330054 0.92729,0.550089 0.25147,0.209558 0.41912,0.419116 0.50294,0.628673 l 0.0314,-1.3988 h 1.61883 v 7.5598 h -1.60312 l -0.0314,-1.430233 c -0.17813,0.377203 -0.50294,0.712496 -0.97445,1.005877 -0.4715,0.282903 -1.00063,0.424354 -1.5874,0.424354 z m 0.28291,-1.414515 c 0.59724,0 1.10018,-0.204319 1.50881,-0.612956 0.40864,-0.419115 0.61296,-0.963965 0.61296,-1.63455 v -0.110018 c 0,-0.450549 -0.0943,-0.853948 -0.2829,-1.210196 -0.18861,-0.356249 -0.44532,-0.633913 -0.77013,-0.832992 -0.32481,-0.19908 -0.68106,-0.29862 -1.06874,-0.29862 -0.67059,0 -1.18924,0.220036 -1.55597,0.660107 -0.36673,0.429593 -0.55009,0.99016 -0.55009,1.681701 0,0.702018 0.17812,1.273063 0.53437,1.713134 0.36673,0.429593 0.89062,0.64439 1.57169,0.64439 z"
           inkscape:connector-curvature="0"
           sodipodi:nodetypes="cccscsssccccccccccscssccscscs" />
        <path
           id="path2859"
           style="font-style:normal;font-variant:normal;font-weight:normal;font-stretch:normal;font-size:medium;line-height:1.25;font-family:Alata;-inkscape-font-specification:Alata;letter-spacing:0px;word-spacing:0px;fill:#00a9e0;fill-opacity:1;stroke-width:0.39292076"
           d="m -162.36035,22.504034 h 1.76028 v 7.5598 h -1.76028 z m 0.86442,-1.163043 c -0.32481,0 -0.59724,-0.110018 -0.81727,-0.330054 -0.22004,-0.220035 -0.33006,-0.49246 -0.33006,-0.817275 0,-0.293381 0.11002,-0.54485 0.33006,-0.754408 0.22003,-0.209557 0.49246,-0.314336 0.81727,-0.314336 0.31434,0 0.58153,0.104779 0.80156,0.314336 0.22003,0.209558 0.33005,0.461027 0.33005,0.754408 0,0.324815 -0.11002,0.59724 -0.33005,0.817275 -0.20956,0.220036 -0.47675,0.330054 -0.80156,0.330054 z"
           inkscape:connector-curvature="0"
           sodipodi:nodetypes="cccccscscscscs" />
        <path
           id="path2861"
           style="font-style:normal;font-variant:normal;font-weight:normal;font-stretch:normal;font-size:medium;line-height:1.25;font-family:Alata;-inkscape-font-specification:Alata;letter-spacing:0px;word-spacing:0px;fill:#00a9e0;fill-opacity:1;stroke-width:0.39292076"
           d="m -155.56991,30.063832 q -0.75441,0 -1.57169,-0.188602 -0.80156,-0.204319 -1.14733,-0.471505 l 0.56581,-1.33593 q 0.94301,0.660107 2.15321,0.660107 1.21019,0 1.21019,-0.707258 0,-0.314336 -0.25147,-0.487222 -0.25147,-0.172885 -0.89586,-0.408637 l -0.59724,-0.220036 q -0.94301,-0.377204 -1.4931,-0.895859 -0.55008,-0.534373 -0.55008,-1.398798 0,-0.990161 0.77012,-1.54025 0.78584,-0.565806 2.09034,-0.565806 0.64439,0 1.25735,0.141452 0.62867,0.141451 0.95872,0.361487 l -0.61295,1.351647 q -0.20432,-0.204318 -0.66011,-0.34577 -0.44007,-0.157168 -0.99016,-0.157168 -1.1159,0 -1.1159,0.675824 0,0.377204 0.29862,0.581522 0.29862,0.188602 0.97445,0.424355 0.0629,0.01572 0.48722,0.172885 1.00588,0.392921 1.4931,0.895859 0.48722,0.502939 0.48722,1.288781 0,1.068744 -0.81728,1.618833 -0.80155,0.550089 -2.04318,0.550089 z"
           inkscape:connector-curvature="0" />
      </g>
    </g>
  </g>
</svg>
