<?xml version="1.0" encoding="UTF-8" standalone="no"?>
<!-- Created with Inkscape (http://www.inkscape.org/) -->

<svg
   xmlns:dc="http://purl.org/dc/elements/1.1/"
   xmlns:cc="http://creativecommons.org/ns#"
   xmlns:rdf="http://www.w3.org/1999/02/22-rdf-syntax-ns#"
   xmlns:svg="http://www.w3.org/2000/svg"
   xmlns="http://www.w3.org/2000/svg"
   xmlns:sodipodi="http://sodipodi.sourceforge.net/DTD/sodipodi-0.dtd"
   xmlns:inkscape="http://www.inkscape.org/namespaces/inkscape"
   width="102.80763mm"
   height="38.866001mm"
   viewBox="0 0 102.80763 38.866001"
   version="1.1"
   id="svg2923"
   inkscape:version="0.92.3 (2405546, 2018-03-11)"
   sodipodi:docname="logo-h-white.svg">
  <defs
     id="defs2917" />
  <sodipodi:namedview
     id="base"
     pagecolor="#ffffff"
     bordercolor="#666666"
     borderopacity="1.0"
     inkscape:pageopacity="0.0"
     inkscape:pageshadow="2"
     inkscape:zoom="0.5"
     inkscape:cx="162.48777"
     inkscape:cy="-196.40242"
     inkscape:document-units="mm"
     inkscape:current-layer="layer1"
     showgrid="false"
     fit-margin-top="0"
     fit-margin-left="0"
     fit-margin-right="0"
     fit-margin-bottom="0"
     inkscape:window-width="1366"
     inkscape:window-height="743"
     inkscape:window-x="0"
     inkscape:window-y="312"
     inkscape:window-maximized="1" />
  <metadata
     id="metadata2920">
    <rdf:RDF>
      <cc:Work
         rdf:about="">
        <dc:format>image/svg+xml</dc:format>
        <dc:type
           rdf:resource="http://purl.org/dc/dcmitype/StillImage" />
        <dc:title></dc:title>
      </cc:Work>
    </rdf:RDF>
  </metadata>
  <g
     inkscape:label="Camada 1"
     inkscape:groupmode="layer"
     id="layer1"
     transform="translate(-344.53026,-62.064106)">
    <g
       id="g4516"
       transform="matrix(0.6326603,0,0,0.6326603,-244.35372,137.10336)"
       style="fill:#ffffff;fill-opacity:1">
      <path
         d="m 993.30648,-109.64261 h 6.36056 q 5.37416,0 7.14286,1.80272 1.7687,1.80272 1.7687,4.35374 0,1.70068 -0.7483,3.2313 -0.7483,1.496595 -2.381,2.244894 2.381,0.37415 3.5374,2.006803 1.1565,1.59864 1.1565,3.741498 0,2.176869 -0.6803,3.809523 -0.6802,1.632653 -2.8231,2.721088 -2.1429,1.088435 -6.1905,1.088435 h -7.14282 z m 6.97272,10.612246 q 2.415,0 3.4354,-1.156466 1.0204,-1.19047 1.0204,-2.99319 0,-3.2313 -4.6258,-3.2313 h -3.06122 v 7.380956 z m 0.6803,11.190478 q 3.0953,0 4.1497,-1.22449 1.0884,-1.258505 1.0884,-3.163266 0,-1.802722 -1.2245,-2.789116 -1.2245,-0.986395 -3.7075,-0.986395 h -4.21762 v 8.163267 z"
         style="font-style:normal;font-variant:normal;font-weight:normal;font-stretch:normal;font-size:medium;line-height:1.25;font-family:Alata;-inkscape-font-specification:Alata;letter-spacing:1.00541663px;word-spacing:0px;fill:#ffffff;fill-opacity:1;stroke-width:0.85034019"
         id="path4506"
         inkscape:connector-curvature="0" />
      <path
         d="m 1025.9357,-109.64261 11.8577,25.000001 h -4.249 l -2.0751,-4.743082 h -11.1001 l -2.0751,4.743082 h -4.1173 z m 4.0843,16.930173 -4.0514,-9.255603 -4.1172,9.255603 z"
         style="font-style:normal;font-variant:normal;font-weight:normal;font-stretch:normal;font-size:medium;line-height:1.25;font-family:Alata;-inkscape-font-specification:Alata;letter-spacing:1.00541663px;word-spacing:0px;fill:#ffffff;fill-opacity:1;stroke-width:0.82345194"
         id="path4508"
         inkscape:connector-curvature="0" />
      <path
         sodipodi:nodetypes="ccccc"
         d="m 1041.827,-109.64261 h 3.689 v 25.000001 h -3.689 z"
         style="font-style:normal;font-variant:normal;font-weight:normal;font-stretch:normal;font-size:medium;line-height:1.25;font-family:Alata;-inkscape-font-specification:Alata;letter-spacing:1.00541663px;word-spacing:0px;fill:#ffffff;fill-opacity:1;stroke-width:0.82345194"
         id="path4510"
         inkscape:connector-curvature="0" />
      <path
         sodipodi:nodetypes="ccccccccc"
         d="m 1055.742,-106.41468 h -6.1923 v -3.22793 h 16.1067 v 3.22793 h -6.2583 v 21.772071 h -3.6561 z"
         style="font-style:normal;font-variant:normal;font-weight:normal;font-stretch:normal;font-size:medium;line-height:1.25;font-family:Alata;-inkscape-font-specification:Alata;letter-spacing:1.00541663px;word-spacing:0px;fill:#ffffff;fill-opacity:1;stroke-width:0.82345194"
         id="path4512"
         inkscape:connector-curvature="0" />
      <path
         d="m 1081.4488,-109.64261 11.8577,25.000001 h -4.249 l -2.0751,-4.743082 h -11.1001 l -2.0751,4.743082 h -4.1173 z m 4.0843,16.930173 -4.0514,-9.255603 -4.1172,9.255603 z"
         style="font-style:normal;font-variant:normal;font-weight:normal;font-stretch:normal;font-size:medium;line-height:1.25;font-family:Alata;-inkscape-font-specification:Alata;letter-spacing:1.00541663px;word-spacing:0px;fill:#ffffff;fill-opacity:1;stroke-width:0.82345194"
         id="path4514"
         inkscape:connector-curvature="0" />
    </g>
    <g
       transform="matrix(0.49821358,0,0,0.49821358,523.41979,78.449)"
       style="fill:#ffffff;fill-opacity:1"
       id="g4554">
      <g
         style="fill:#ffffff;fill-opacity:1"
         id="g4534">
        <path
           inkscape:connector-curvature="0"
           d="m -276.48898,30.063832 q -0.94301,0 -1.8703,-0.330053 -0.92729,-0.330054 -1.33593,-0.738691 l 0.83299,-1.493099 q 0.33006,0.29862 1.0216,0.628673 0.70725,0.314337 1.35164,0.314337 0.833,0 1.35165,-0.392921 0.53437,-0.392921 0.53437,-1.084462 0,-0.534372 -0.2829,-0.927293 -0.2829,-0.39292 -0.69154,-0.64439 -0.40864,-0.267186 -1.16304,-0.64439 -0.89586,-0.440071 -1.22592,-0.660107 -1.52453,-1.021594 -1.52453,-2.829029 0,-1.493099 0.99016,-2.278941 0.99016,-0.801558 2.49898,-0.801558 1.61883,0 2.75044,0.927293 l -0.83299,1.430231 q -0.29862,-0.314336 -0.84871,-0.534372 -0.53437,-0.235752 -1.14733,-0.235752 -0.78584,0 -1.24163,0.361487 -0.44007,0.34577 -0.44007,1.037311 0,0.487222 0.2829,0.880142 0.28291,0.377204 0.70726,0.660107 0.44007,0.282903 1.17876,0.691541 0.70726,0.392921 1.08447,0.628673 0.3772,0.220036 0.70725,0.534372 0.45579,0.408638 0.73869,0.974444 0.28291,0.565806 0.28291,1.241629 0,1.053028 -0.48723,1.791719 -0.4715,0.738691 -1.32021,1.115895 -0.83299,0.377204 -1.90174,0.377204 z"
           style="font-style:normal;font-variant:normal;font-weight:normal;font-stretch:normal;font-size:medium;line-height:1.25;font-family:Alata;-inkscape-font-specification:Alata;letter-spacing:0px;word-spacing:0px;fill:#ffffff;fill-opacity:1;stroke-width:0.39292076"
           id="path4518" />
        <path
           inkscape:connector-curvature="0"
           d="m -266.8994,30.063832 q -1.11589,0 -1.98032,-0.502938 -0.86443,-0.502939 -1.33593,-1.367365 -0.47151,-0.864425 -0.47151,-1.917453 0,-1.037311 0.45579,-1.901737 0.47151,-0.864425 1.33593,-1.367364 0.86443,-0.502939 1.99604,-0.502939 1.13161,0 1.98032,0.502939 0.86443,0.502939 1.32021,1.367364 0.47151,0.864426 0.47151,1.901737 0,1.053028 -0.47151,1.917453 -0.4715,0.864426 -1.33593,1.367365 -0.8487,0.502938 -1.9646,0.502938 z m 0.0471,-1.383081 q 0.91158,0 1.43023,-0.675824 0.53437,-0.675823 0.53437,-1.697417 0,-1.021594 -0.5658,-1.713135 -0.56581,-0.707257 -1.4931,-0.707257 -0.89586,0 -1.44595,0.69154 -0.53437,0.691541 -0.53437,1.728852 0,1.005877 0.58152,1.697417 0.58152,0.675824 1.4931,0.675824 z"
           style="font-style:normal;font-variant:normal;font-weight:normal;font-stretch:normal;font-size:medium;line-height:1.25;font-family:Alata;-inkscape-font-specification:Alata;letter-spacing:0px;word-spacing:0px;fill:#ffffff;fill-opacity:1;stroke-width:0.39292076"
           id="path4520" />
        <path
           sodipodi:nodetypes="ccccc"
           inkscape:connector-curvature="0"
           d="m -261.03472,18.283214 h 1.6817 v 11.78062 h -1.6817 z"
           style="font-style:normal;font-variant:normal;font-weight:normal;font-stretch:normal;font-size:medium;line-height:1.25;font-family:Alata;-inkscape-font-specification:Alata;letter-spacing:0px;word-spacing:0px;fill:#ffffff;fill-opacity:1;stroke-width:0.39292076"
           id="path4522" />
        <path
           sodipodi:nodetypes="scsccsccsccsccccccs"
           inkscape:connector-curvature="0"
           d="m -254.6514,30.063832 c -0.9954,0 -1.6817,-0.293381 -2.0589,-0.880142 -0.36673,-0.586762 -0.55009,-1.404037 -0.55009,-2.451826 v -4.039226 h 1.69742 v 3.614872 c 0,0.597239 0.0314,1.063505 0.0943,1.398798 0.0733,0.324814 0.20955,0.565805 0.40863,0.722974 0.20956,0.157168 0.51866,0.235752 0.9273,0.235752 0.29338,0 0.57628,-0.08382 0.84871,-0.251469 0.27242,-0.167646 0.49245,-0.392921 0.6601,-0.675824 0.17813,-0.293381 0.26719,-0.612956 0.26719,-0.958727 v -4.086376 h 1.6817 v 7.371196 h -1.38308 l -0.1886,-1.210198 c -0.26195,0.408638 -0.592,0.712497 -0.99016,0.911576 -0.38769,0.19908 -0.85919,0.29862 -1.41452,0.29862 z"
           style="font-style:normal;font-variant:normal;font-weight:normal;font-stretch:normal;font-size:medium;line-height:1.25;font-family:Alata;-inkscape-font-specification:Alata;letter-spacing:0px;word-spacing:0px;fill:#ffffff;fill-opacity:1;stroke-width:0.39292076"
           id="path4524" />
        <path
           inkscape:connector-curvature="0"
           d="m -242.45277,29.372292 q -0.29862,0.220035 -0.80156,0.424354 -0.48722,0.188602 -1.10017,0.251469 0.0629,0.204319 0.29862,0.502939 0.26718,0.361487 0.39292,0.660107 0.14145,0.29862 0.14145,0.738691 0,1.084461 -0.64439,1.5874 -0.62868,0.518655 -1.72885,0.518655 -0.37721,0 -0.84871,-0.07858 l 0.14145,-1.461665 q 0.22003,0.03143 0.44007,0.03143 1.11589,0 1.11589,-0.707258 0,-0.141451 -0.0629,-0.29862 -0.0629,-0.141451 -0.12574,-0.235752 -0.0471,-0.07858 -0.0629,-0.110018 -0.14146,-0.204319 -0.23576,-0.392921 -0.0786,-0.188602 -0.0786,-0.424354 0,-0.251469 0.0629,-0.377204 -1.35165,-0.235753 -2.20036,-1.225913 -0.83299,-1.005877 -0.83299,-2.561843 0,-1.115895 0.45579,-1.948888 0.4715,-0.848708 1.30449,-1.304496 0.84871,-0.455789 1.94889,-0.455789 0.83299,0 1.43023,0.220036 0.61296,0.204319 0.95873,0.518655 l -0.75441,1.367365 q -0.66011,-0.660107 -1.4931,-0.660107 -1.00588,0 -1.54025,0.612956 -0.51865,0.612957 -0.51865,1.634551 0,1.163045 0.53437,1.807435 0.55009,0.64439 1.52453,0.64439 0.48722,0 0.94301,-0.141451 0.47151,-0.141452 0.72298,-0.330054 z"
           style="font-style:normal;font-variant:normal;font-weight:normal;font-stretch:normal;font-size:medium;line-height:1.25;font-family:Alata;-inkscape-font-specification:Alata;letter-spacing:0px;word-spacing:0px;fill:#ffffff;fill-opacity:1;stroke-width:0.39292076"
           id="path4526" />
        <path
           inkscape:connector-curvature="0"
           d="m -236.57237,30.063832 q -1.11589,0 -1.98032,-0.502938 -0.86443,-0.502939 -1.33593,-1.367365 -0.47151,-0.864425 -0.47151,-1.917453 0,-1.037311 0.45579,-1.901737 0.47151,-0.864425 1.33593,-1.367364 0.86443,-0.502939 1.99604,-0.502939 1.13161,0 1.98032,0.502939 0.86443,0.502939 1.32022,1.367364 0.4715,0.864426 0.4715,1.901737 0,1.053028 -0.4715,1.917453 -0.47151,0.864426 -1.33593,1.367365 -0.84871,0.502938 -1.96461,0.502938 z m 0.0471,-1.383081 q 0.91158,0 1.43023,-0.675824 0.53438,-0.675823 0.53438,-1.697417 0,-1.021594 -0.56581,-1.713135 -0.56581,-0.707257 -1.4931,-0.707257 -0.89586,0 -1.44595,0.69154 -0.53437,0.691541 -0.53437,1.728852 0,1.005877 0.58152,1.697417 0.58153,0.675824 1.4931,0.675824 z m 0.95873,-7.481212 q -0.47151,0 -0.73869,-0.141451 -0.25147,-0.141452 -0.50294,-0.408638 -0.1886,-0.220035 -0.37721,-0.330053 -0.1886,-0.110018 -0.4715,-0.110018 -0.26719,0 -0.55009,0.220036 -0.26719,0.220035 -0.4715,0.675823 l -0.72298,-1.100178 q 0.14145,-0.487222 0.58152,-0.880142 0.45579,-0.392921 1.13162,-0.392921 0.45578,0 0.73869,0.157168 0.29862,0.141452 0.51865,0.392921 0.22004,0.235752 0.40864,0.34577 0.20432,0.110018 0.48722,0.110018 0.28291,0 0.56581,-0.220036 0.29862,-0.235752 0.50294,-0.707257 l 0.72297,1.115895 q -0.0629,0.251469 -0.33005,0.550089 -0.25147,0.29862 -0.66011,0.518656 -0.39292,0.204318 -0.83299,0.204318 z"
           style="font-style:normal;font-variant:normal;font-weight:normal;font-stretch:normal;font-size:medium;line-height:1.25;font-family:Alata;-inkscape-font-specification:Alata;letter-spacing:0px;word-spacing:0px;fill:#ffffff;fill-opacity:1;stroke-width:0.39292076"
           id="path4528" />
        <path
           inkscape:connector-curvature="0"
           d="m -226.87278,30.063832 q -1.28878,0 -2.15321,-0.502938 -0.86442,-0.518656 -1.27306,-1.367365 -0.40864,-0.864425 -0.40864,-1.886019 0,-1.147329 0.47151,-2.011755 0.48722,-0.864426 1.33593,-1.320214 0.84871,-0.471505 1.91745,-0.471505 1.66599,0 2.46754,0.927293 0.81728,0.911577 0.81728,2.577561 0,0.424354 -0.0471,0.880142 h -5.18656 q 0.17289,0.958727 0.67583,1.383081 0.51865,0.424355 1.43023,0.424355 0.75441,0 1.24163,-0.125735 0.48722,-0.125734 0.89586,-0.34577 l 0.51865,1.210196 q -0.39292,0.251469 -1.06874,0.440071 -0.67582,0.188602 -1.63455,0.188602 z m 1.52453,-4.353562 q 0.0157,-0.974444 -0.42435,-1.367364 -0.44007,-0.408638 -1.25735,-0.408638 -1.65027,0 -1.90174,1.776002 z"
           style="font-style:normal;font-variant:normal;font-weight:normal;font-stretch:normal;font-size:medium;line-height:1.25;font-family:Alata;-inkscape-font-specification:Alata;letter-spacing:0px;word-spacing:0px;fill:#ffffff;fill-opacity:1;stroke-width:0.39292076"
           id="path4530" />
        <path
           inkscape:connector-curvature="0"
           d="m -218.88633,30.063832 q -0.7544,0 -1.57168,-0.188602 -0.80156,-0.204319 -1.14733,-0.471505 l 0.56581,-1.33593 q 0.94301,0.660107 2.1532,0.660107 1.2102,0 1.2102,-0.707258 0,-0.314336 -0.25147,-0.487222 -0.25147,-0.172885 -0.89586,-0.408637 l -0.59724,-0.220036 q -0.94301,-0.377204 -1.4931,-0.895859 -0.55009,-0.534373 -0.55009,-1.398798 0,-0.990161 0.77013,-1.54025 0.78584,-0.565806 2.09034,-0.565806 0.64439,0 1.25734,0.141452 0.62868,0.141451 0.95873,0.361487 l -0.61296,1.351647 q -0.20432,-0.204318 -0.6601,-0.34577 -0.44007,-0.157168 -0.99016,-0.157168 -1.1159,0 -1.1159,0.675824 0,0.377204 0.29862,0.581522 0.29862,0.188602 0.97444,0.424355 0.0629,0.01572 0.48723,0.172885 1.00587,0.392921 1.4931,0.895859 0.48722,0.502939 0.48722,1.288781 0,1.068744 -0.81728,1.618833 -0.80156,0.550089 -2.04319,0.550089 z"
           style="font-style:normal;font-variant:normal;font-weight:normal;font-stretch:normal;font-size:medium;line-height:1.25;font-family:Alata;-inkscape-font-specification:Alata;letter-spacing:0px;word-spacing:0px;fill:#ffffff;fill-opacity:1;stroke-width:0.39292076"
           id="path4532" />
      </g>
      <g
         style="fill:#ffffff;fill-opacity:1"
         id="g4552">
        <path
           inkscape:connector-curvature="0"
           d="m -208.96534,18.283214 h 2.78188 q 3.48914,0 4.87222,1.682945 1.3988,1.682947 1.3988,4.007014 0,1.618833 -0.59724,2.997246 -0.59724,1.362385 -1.98032,2.2279 -1.36737,0.865515 -3.59916,0.865515 h -2.87618 z m 3.06479,10.193842 q 2.16892,0 3.14336,-1.250188 0.99016,-1.266216 0.99016,-3.173555 0,-1.859253 -0.99016,-3.029302 -0.99016,-1.170048 -3.14336,-1.170048 h -1.3045 v 8.623093 z"
           style="font-style:normal;font-variant:normal;font-weight:normal;font-stretch:normal;font-size:medium;line-height:1.25;font-family:Alata;-inkscape-font-specification:Alata;letter-spacing:0px;word-spacing:0px;fill:#ffffff;fill-opacity:1;stroke-width:0.39679196"
           id="path4536" />
        <path
           sodipodi:nodetypes="cccccscscscscs"
           inkscape:connector-curvature="0"
           d="m -197.55414,22.504034 h 1.76029 v 7.5598 h -1.76029 z m 0.86443,-1.163043 c -0.32481,0 -0.59724,-0.110018 -0.81728,-0.330054 -0.22003,-0.220035 -0.33005,-0.49246 -0.33005,-0.817275 0,-0.293381 0.11002,-0.54485 0.33005,-0.754408 0.22004,-0.209557 0.49247,-0.314336 0.81728,-0.314336 0.31433,0 0.58152,0.104779 0.80156,0.314336 0.22003,0.209558 0.33005,0.461027 0.33005,0.754408 0,0.324815 -0.11002,0.59724 -0.33005,0.817275 -0.20956,0.220036 -0.47675,0.330054 -0.80156,0.330054 z"
           style="font-style:normal;font-variant:normal;font-weight:normal;font-stretch:normal;font-size:medium;line-height:1.25;font-family:Alata;-inkscape-font-specification:Alata;letter-spacing:0px;word-spacing:0px;fill:#ffffff;fill-opacity:1;stroke-width:0.39292076"
           id="path4538" />
        <path
           sodipodi:nodetypes="ccccsscccsccscsssccccssccscssssscscs"
           inkscape:connector-curvature="0"
           d="m -189.5535,33.678703 c -0.53437,0 -1.06351,-0.07334 -1.5874,-0.220035 -0.51342,-0.146691 -0.88015,-0.282903 -1.10018,-0.408638 l 0.3772,-1.571683 c 0.69154,0.450549 1.44595,0.675824 2.26323,0.675824 0.62867,0 1.15781,-0.151929 1.5874,-0.455788 0.42959,-0.303859 0.64963,-0.895859 0.6601,-1.776002 v -1.28878 c -0.22003,0.408637 -0.57628,0.749169 -1.06874,1.021594 -0.49246,0.272425 -1.03731,0.408637 -1.63455,0.408637 -0.62867,0 -1.20496,-0.151929 -1.72885,-0.455788 -0.5239,-0.314337 -0.93778,-0.759647 -1.24163,-1.335931 -0.30386,-0.576283 -0.45579,-1.246868 -0.45579,-2.011754 0,-0.733452 0.14145,-1.383081 0.42435,-1.948887 0.29338,-0.576284 0.70726,-1.021594 1.24163,-1.335931 0.53437,-0.314337 1.15781,-0.471505 1.87031,-0.471505 0.41911,0 0.81203,0.07334 1.17876,0.220036 0.36673,0.146691 0.67582,0.330054 0.92729,0.550089 0.26195,0.209558 0.43483,0.419116 0.51866,0.628673 l 0.0314,-1.3988 h 1.60312 v 7.355479 c 0,1.225913 -0.31434,2.168923 -0.94301,2.82903 -0.62867,0.660107 -1.60312,0.99016 -2.92333,0.99016 z m -0.0314,-5.045102 c 0.59724,0 1.10018,-0.204319 1.50882,-0.612957 0.40863,-0.419115 0.61295,-0.963965 0.61295,-1.63455 v -0.110018 c 0,-0.450549 -0.0943,-0.853948 -0.2829,-1.210196 -0.1886,-0.356248 -0.44531,-0.633912 -0.77012,-0.832992 -0.32481,-0.19908 -0.68106,-0.29862 -1.06875,-0.29862 -0.67058,0 -1.18923,0.220036 -1.55596,0.660107 -0.36673,0.429593 -0.55009,0.99016 -0.55009,1.681701 0,0.702019 0.17812,1.273063 0.53437,1.713134 0.36673,0.429594 0.89062,0.644391 1.57168,0.644391 z"
           style="font-style:normal;font-variant:normal;font-weight:normal;font-stretch:normal;font-size:medium;line-height:1.25;font-family:Alata;-inkscape-font-specification:Alata;letter-spacing:0px;word-spacing:0px;fill:#ffffff;fill-opacity:1;stroke-width:0.39292076"
           id="path4540" />
        <path
           sodipodi:nodetypes="cccccscscscscs"
           inkscape:connector-curvature="0"
           d="m -183.3289,22.504034 h 1.76029 v 7.5598 h -1.76029 z m 0.86443,-1.163043 c -0.32481,0 -0.59724,-0.110018 -0.81728,-0.330054 -0.22003,-0.220035 -0.33005,-0.49246 -0.33005,-0.817275 0,-0.293381 0.11002,-0.54485 0.33005,-0.754408 0.22004,-0.209557 0.49247,-0.314336 0.81728,-0.314336 0.31433,0 0.58152,0.104779 0.80156,0.314336 0.22003,0.209558 0.33005,0.461027 0.33005,0.754408 0,0.324815 -0.11002,0.59724 -0.33005,0.817275 -0.20956,0.220036 -0.47675,0.330054 -0.80156,0.330054 z"
           style="font-style:normal;font-variant:normal;font-weight:normal;font-stretch:normal;font-size:medium;line-height:1.25;font-family:Alata;-inkscape-font-specification:Alata;letter-spacing:0px;word-spacing:0px;fill:#ffffff;fill-opacity:1;stroke-width:0.39292076"
           id="path4542" />
        <path
           sodipodi:nodetypes="ccccccccccccc"
           inkscape:connector-curvature="0"
           d="m -177.98439,23.887116 h -1.27307 v -1.383082 h 1.27307 v -2.750443 l 1.71313,-0.377204 v 3.127647 h 1.66599 v 1.383082 h -1.66599 v 6.176718 h -1.71313 z"
           style="font-style:normal;font-variant:normal;font-weight:normal;font-stretch:normal;font-size:medium;line-height:1.25;font-family:Alata;-inkscape-font-specification:Alata;letter-spacing:0px;word-spacing:0px;fill:#ffffff;fill-opacity:1;stroke-width:0.39292076"
           id="path4544" />
        <path
           sodipodi:nodetypes="cccscsssccccccccccscssccscscs"
           inkscape:connector-curvature="0"
           d="m -168.91501,30.063832 c -0.64963,0 -1.2521,-0.151929 -1.80743,-0.455788 -0.54485,-0.314337 -0.98492,-0.754408 -1.32021,-1.320214 -0.32482,-0.576283 -0.48723,-1.246868 -0.48723,-2.011754 0,-0.754408 0.14145,-1.414515 0.42436,-1.980321 0.29338,-0.565806 0.70726,-1.005877 1.24163,-1.320214 0.53437,-0.314337 1.16305,-0.471505 1.88602,-0.471505 0.41911,0 0.81203,0.07334 1.17876,0.220036 0.36673,0.146691 0.67582,0.330054 0.92729,0.550089 0.25147,0.209558 0.41912,0.419116 0.50294,0.628673 l 0.0314,-1.3988 h 1.61883 v 7.5598 h -1.60312 l -0.0314,-1.430233 c -0.17813,0.377203 -0.50294,0.712496 -0.97445,1.005877 -0.4715,0.282903 -1.00063,0.424354 -1.5874,0.424354 z m 0.28291,-1.414515 c 0.59724,0 1.10018,-0.204319 1.50881,-0.612956 0.40864,-0.419115 0.61296,-0.963965 0.61296,-1.63455 v -0.110018 c 0,-0.450549 -0.0943,-0.853948 -0.2829,-1.210196 -0.18861,-0.356249 -0.44532,-0.633913 -0.77013,-0.832992 -0.32481,-0.19908 -0.68106,-0.29862 -1.06874,-0.29862 -0.67059,0 -1.18924,0.220036 -1.55597,0.660107 -0.36673,0.429593 -0.55009,0.99016 -0.55009,1.681701 0,0.702018 0.17812,1.273063 0.53437,1.713134 0.36673,0.429593 0.89062,0.64439 1.57169,0.64439 z"
           style="font-style:normal;font-variant:normal;font-weight:normal;font-stretch:normal;font-size:medium;line-height:1.25;font-family:Alata;-inkscape-font-specification:Alata;letter-spacing:0px;word-spacing:0px;fill:#ffffff;fill-opacity:1;stroke-width:0.39292076"
           id="path4546" />
        <path
           sodipodi:nodetypes="cccccscscscscs"
           inkscape:connector-curvature="0"
           d="m -162.36035,22.504034 h 1.76028 v 7.5598 h -1.76028 z m 0.86442,-1.163043 c -0.32481,0 -0.59724,-0.110018 -0.81727,-0.330054 -0.22004,-0.220035 -0.33006,-0.49246 -0.33006,-0.817275 0,-0.293381 0.11002,-0.54485 0.33006,-0.754408 0.22003,-0.209557 0.49246,-0.314336 0.81727,-0.314336 0.31434,0 0.58153,0.104779 0.80156,0.314336 0.22003,0.209558 0.33005,0.461027 0.33005,0.754408 0,0.324815 -0.11002,0.59724 -0.33005,0.817275 -0.20956,0.220036 -0.47675,0.330054 -0.80156,0.330054 z"
           style="font-style:normal;font-variant:normal;font-weight:normal;font-stretch:normal;font-size:medium;line-height:1.25;font-family:Alata;-inkscape-font-specification:Alata;letter-spacing:0px;word-spacing:0px;fill:#ffffff;fill-opacity:1;stroke-width:0.39292076"
           id="path4548" />
        <path
           inkscape:connector-curvature="0"
           d="m -155.56991,30.063832 q -0.75441,0 -1.57169,-0.188602 -0.80156,-0.204319 -1.14733,-0.471505 l 0.56581,-1.33593 q 0.94301,0.660107 2.15321,0.660107 1.21019,0 1.21019,-0.707258 0,-0.314336 -0.25147,-0.487222 -0.25147,-0.172885 -0.89586,-0.408637 l -0.59724,-0.220036 q -0.94301,-0.377204 -1.4931,-0.895859 -0.55008,-0.534373 -0.55008,-1.398798 0,-0.990161 0.77012,-1.54025 0.78584,-0.565806 2.09034,-0.565806 0.64439,0 1.25735,0.141452 0.62867,0.141451 0.95872,0.361487 l -0.61295,1.351647 q -0.20432,-0.204318 -0.66011,-0.34577 -0.44007,-0.157168 -0.99016,-0.157168 -1.1159,0 -1.1159,0.675824 0,0.377204 0.29862,0.581522 0.29862,0.188602 0.97445,0.424355 0.0629,0.01572 0.48722,0.172885 1.00588,0.392921 1.4931,0.895859 0.48722,0.502939 0.48722,1.288781 0,1.068744 -0.81728,1.618833 -0.80155,0.550089 -2.04318,0.550089 z"
           style="font-style:normal;font-variant:normal;font-weight:normal;font-stretch:normal;font-size:medium;line-height:1.25;font-family:Alata;-inkscape-font-specification:Alata;letter-spacing:0px;word-spacing:0px;fill:#ffffff;fill-opacity:1;stroke-width:0.39292076"
           id="path4550" />
      </g>
    </g>
    <g
       id="g4653"
       transform="matrix(0.96664413,0,0,0.96664413,208.37784,-149.14112)">
      <g
         style="fill:#ffffff;fill-opacity:1"
         transform="matrix(0.37082862,0,0,0.37082862,-59.7967,279.4173)"
         id="g1888">
        <path
           sodipodi:nodetypes="ccccccssc"
           inkscape:connector-curvature="0"
           id="path1886"
           transform="matrix(0.71349221,0,0,0.71349221,-4900.4294,-1151.4806)"
           d="m 7661.0371,1383.6016 c -6.5956,-6e-4 -11.9428,5.3458 -11.9433,11.9414 v 9.2304 c 0.01,-0.013 0.018,-0.026 0.027,-0.039 0.8897,11.4233 9.2367,23.8894 26.373,26.6426 5.7819,0.9289 22.208,0.2647 30.4707,1.4179 3.562,-5.0773 5.6602,-11.2567 5.6602,-17.9297 0,-17.267 -13.9986,-31.2636 -31.2656,-31.2636 z"
           style="opacity:1;vector-effect:none;fill:#ffffff;fill-opacity:1;stroke:none;stroke-width:0.96420962px;stroke-linecap:butt;stroke-linejoin:miter;stroke-miterlimit:4;stroke-dasharray:none;stroke-dashoffset:0;stroke-opacity:1" />
      </g>
      <path
         style="opacity:1;vector-effect:none;fill:#ffffff;fill-opacity:1;stroke:none;stroke-width:0.38483492px;stroke-linecap:butt;stroke-linejoin:miter;stroke-miterlimit:4;stroke-dasharray:none;stroke-dashoffset:0;stroke-opacity:1"
         d="m 146.8068,224.18436 v 2e-4 c 0,0 0,0.0112 0,0.0119 z m 0,0.0121 v 18.14458 l 0.1665,-0.0224 c 0.019,-0.002 0.038,-0.003 0.056,-0.003 v 2e-4 c 0.055,0.001 0.1081,0.0144 0.1554,0.0378 0.1053,0.052 0.1835,0.15399 0.2005,0.27959 l 0.2035,1.50545 c 0.027,0.20096 -0.1126,0.38448 -0.3135,0.41162 l -0.4546,0.0615 -0.014,-1.66738 v 2.37124 c 0,0.37645 0,0.6095 0,0.9823 l 0.2693,-0.0364 c 0.013,-0.002 0.027,-0.002 0.04,-0.002 v 2e-4 c 0.039,5.9e-4 0.077,0.01 0.1112,0.0266 0.075,0.0371 0.131,0.11016 0.1431,0.19987 l 0.051,0.37923 c 0.019,0.14356 -0.081,0.27496 -0.2241,0.29435 l -0.3796,0.0514 c 0,6e-5 0,0 -0.01,0 0,-0.20676 0,-0.37837 0,-0.55228 v -0.36065 l -0.1103,0.0149 c -0.1436,0.0194 -0.2435,0.1506 -0.2241,0.29415 l 0.051,0.37943 c 0.019,0.13985 0.1439,0.23755 0.283,0.22459 0,3.13855 0,6.26622 0,8.32943 1e-4,1.74504 1.4146,3.15959 3.1596,3.15961 0,0 8.0415,3e-5 10.2249,0 7.392,-6e-5 13.3842,-5.9925 13.3841,-13.38446 -1e-4,-7.39186 -5.9922,-13.38402 -13.3841,-13.38409 h -4.2456 -1.1902 c -3.7903,-1e-5 -7.5961,-3.40091 -7.9421,-7.34559 0,-0.003 -0.01,-0.367 -0.01,-0.3892 z m -2.1474,11.59655 -0.1953,0.0263 c -0.054,0.007 -0.092,0.0571 -0.085,0.11134 l 0.027,0.19527 c 0.01,0.0543 0.057,0.092 0.1111,0.0847 l 0.1953,-0.0264 c 0.054,-0.007 0.092,-0.0569 0.085,-0.11115 l -0.026,-0.19527 c -0.01,-0.0543 -0.057,-0.092 -0.1113,-0.0847 z m -1.3163,1.50795 c -0.011,-0.001 -0.022,3e-5 -0.033,0.001 l -0.316,0.0427 c -0.088,0.0119 -0.149,0.0921 -0.1372,0.17995 l 0.043,0.31619 c 0.012,0.0878 0.092,0.14888 0.1801,0.13701 l 0.316,-0.0427 c 0.088,-0.0119 0.1491,-0.0921 0.1372,-0.17994 l -0.043,-0.316 c -0.01,-0.0768 -0.073,-0.1334 -0.1476,-0.13835 z m -0.984,1.66489 v 1.9e-4 c -0.017,-0.001 -0.035,-1e-4 -0.053,0.002 l -0.5115,0.069 c -0.1421,0.0192 -0.2409,0.14918 -0.2217,0.29128 l 0.069,0.51127 c 0.019,0.14211 0.1489,0.24112 0.291,0.22191 l 0.5115,-0.0692 c 0.1421,-0.0192 0.2409,-0.14899 0.2217,-0.29109 l -0.069,-0.51146 c -0.017,-0.12433 -0.1182,-0.21562 -0.2385,-0.22364 z m 20.7737,1.48954 c 0.4944,-0.004 0.8956,0.39053 0.8997,0.88496 l 0.056,6.70267 c 0,0.49442 -0.3907,0.89559 -0.8851,0.89971 l -6.7025,0.0556 c -0.4944,0.004 -0.8958,-0.39072 -0.8999,-0.88514 l -0.055,-6.70249 c 0,-0.49442 0.3905,-0.89578 0.8849,-0.8999 z m -18.629,0.0483 c -0.017,-0.001 -0.035,-0.001 -0.053,0.002 l -0.3794,0.0512 c -0.1436,0.0194 -0.2436,0.1508 -0.2242,0.29435 l 0.051,0.37962 c 0.019,0.14354 0.1506,0.24323 0.2942,0.22383 l 0.3796,-0.0512 c 0.1436,-0.0194 0.2434,-0.1508 0.224,-0.29434 l -0.051,-0.37943 c -0.017,-0.1256 -0.1196,-0.21765 -0.2411,-0.22574 z m 6.9075,0.3436 1.6458,0.0881 c 0.1735,0.009 0.3057,0.15642 0.2964,0.32999 l -0.088,1.64553 c -0.01,0.17358 -0.1568,0.30576 -0.3304,0.29646 l -1.6456,-0.088 c -0.1735,-0.009 -0.3057,-0.15662 -0.2964,-0.33018 l 0.088,-1.64554 c 0.01,-0.17356 0.1564,-0.30576 0.33,-0.29645 z m -2.6395,0.42197 v 0 c 0.074,0.005 0.1372,0.0613 0.1476,0.13817 l 0.043,0.31619 c 0.012,0.0878 -0.049,0.16807 -0.1372,0.17994 l -0.316,0.0427 c -0.088,0.0119 -0.1683,-0.0492 -0.1801,-0.13702 l -0.043,-0.31619 c -0.012,-0.0878 0.049,-0.16807 0.1372,-0.17994 l 0.316,-0.0427 c 0.011,-0.001 0.022,-0.002 0.032,-0.001 z m -7.4335,0.32865 c -0.011,-0.001 -0.022,4e-5 -0.033,10e-4 l -0.316,0.0427 c -0.088,0.0119 -0.1491,0.0921 -0.1372,0.17994 l 0.043,0.31619 c 0.012,0.0878 0.092,0.1489 0.1799,0.13702 l 0.3162,-0.0427 c 0.088,-0.0119 0.1489,-0.0921 0.137,-0.17994 l -0.043,-0.31601 c -0.01,-0.0769 -0.073,-0.1334 -0.1474,-0.13835 z m 5.4683,0.74333 -1.3389,0.1811 c -0.201,0.0272 -0.3408,0.21085 -0.3137,0.41181 l 0.2035,1.50565 c 0.027,0.20095 0.2109,0.34085 0.4118,0.3137 l 1.0373,-0.14028 z m -3.3075,0.20045 c -0.011,-10e-4 -0.021,4e-5 -0.032,0.001 l -0.3162,0.0427 c -0.088,0.0119 -0.1489,0.0921 -0.137,0.17994 l 0.043,0.316 c 0.012,0.0878 0.092,0.14908 0.18,0.13721 l 0.316,-0.0427 c 0.088,-0.0119 0.1491,-0.0921 0.1372,-0.17994 l -0.043,-0.31619 c -0.01,-0.0769 -0.073,-0.13321 -0.1476,-0.13817 z m 5.9043,0.12973 v 2e-4 c 0.1203,0.008 0.2218,0.0993 0.2386,0.22363 l 0.069,0.51127 c 0.019,0.1421 -0.08,0.27207 -0.2217,0.29128 l -0.5115,0.0692 c -0.1421,0.0192 -0.2719,-0.0798 -0.2911,-0.2219 l -0.069,-0.51147 c -0.019,-0.14211 0.08,-0.27188 0.2218,-0.29109 l 0.5114,-0.0692 c 0.018,-0.003 0.035,-0.003 0.053,-0.002 z m -7.3538,1.30654 v 2e-4 c -0.017,-0.001 -0.035,-0.001 -0.053,0.002 l -0.435,0.0588 c -0.1435,0.0194 -0.2434,0.15042 -0.224,0.29396 l 0.059,0.435 c 0.019,0.14356 0.1504,0.24362 0.294,0.22421 l 0.4352,-0.0586 c 0.1435,-0.0194 0.2434,-0.15079 0.224,-0.29434 l -0.059,-0.43501 c -0.017,-0.12559 -0.1196,-0.21783 -0.2411,-0.22593 z m 10.3082,1.34698 c 0.2598,-0.0224 0.4871,0.16852 0.5095,0.42829 l 0.2323,2.6882 c 0.022,0.25976 -0.1687,0.48692 -0.4285,0.50936 l -2.688,0.23225 c -0.2598,0.0224 -0.4873,-0.16872 -0.5097,-0.42848 l -0.2321,-2.68801 c -0.022,-0.25976 0.1685,-0.48711 0.4283,-0.50955 z m -8.9285,1.07371 -0.1952,0.0264 c -0.054,0.007 -0.092,0.0569 -0.085,0.11115 l 0.027,0.19527 c 0.01,0.0543 0.057,0.092 0.1111,0.0847 l 0.1953,-0.0264 c 0.054,-0.007 0.092,-0.0569 0.085,-0.11114 l -0.026,-0.19527 c -0.01,-0.0543 -0.057,-0.092 -0.1113,-0.0847 z m 2.4711,0.26119 c -0.017,-0.001 -0.035,-0.001 -0.053,0.002 l -0.8681,0.11747 c -0.1435,0.0194 -0.2434,0.15061 -0.224,0.29415 l 0.1173,0.86809 c 0.019,0.14355 0.1506,0.24343 0.2942,0.22402 l 0.868,-0.11728 c 0.1436,-0.0194 0.2435,-0.15061 0.2241,-0.29415 l -0.1173,-0.86809 c -0.017,-0.12561 -0.1196,-0.21784 -0.2411,-0.22593 z"
         id="path1890"
         inkscape:connector-curvature="0" />
    </g>
  </g>
</svg>
